<svg version="1.1" xmlns="http://www.w3.org/2000/svg" xmlns:xlink="http://www.w3.org/1999/xlink" width="1288" height="704">
    <defs>
        <clipPath id="092a59d8__NzTaigVVSfmC">
            <path fill="none" stroke="none" d=" M 0 0 L 1288 0 L 1288 704 L 0 704 L 0 0 Z"/>
        </clipPath>
    </defs>
    <g transform="scale(1,1)" clip-path="url(#092a59d8__NzTaigVVSfmC)">
        <g>
            <rect fill="rgb(0,0,0)" stroke="none" x="0" y="0" width="1288" height="704" fill-opacity="1"/>
            <path fill="none" stroke="rgb(32,32,32)" paint-order="fill stroke markers" d=" M 0.5 0.5 L 0.5 704.5 M 0.5 0.5 L 0.5 704.5 M 53.5 0.5 L 53.5 704.5 M 161.5 0.5 L 161.5 704.5 M 214.5 0.5 L 214.5 704.5 M 268.5 0.5 L 268.5 704.5 M 321.5 0.5 L 321.5 704.5 M 375.5 0.5 L 375.5 704.5 M 429.5 0.5 L 429.5 704.5 M 482.5 0.5 L 482.5 704.5 M 536.5 0.5 L 536.5 704.5 M 590.5 0.5 L 590.5 704.5 M 643.5 0.5 L 643.5 704.5 M 697.5 0.5 L 697.5 704.5 M 751.5 0.5 L 751.5 704.5 M 804.5 0.5 L 804.5 704.5 M 858.5 0.5 L 858.5 704.5 M 912.5 0.5 L 912.5 704.5 M 965.5 0.5 L 965.5 704.5 M 1019.5 0.5 L 1019.5 704.5 M 1073.5 0.5 L 1073.5 704.5 M 1126.5 0.5 L 1126.5 704.5 M 1180.5 0.5 L 1180.5 704.5 M 1234.5 0.5 L 1234.5 704.5 M 1287.5 0.5 L 1287.5 704.5" stroke-opacity="1" stroke-linecap="round" stroke-linejoin="round" stroke-miterlimit="10"/>
            <path fill="none" stroke="rgb(32,32,32)" paint-order="fill stroke markers" d="" stroke-opacity="0.23529411764705882" stroke-linecap="round" stroke-linejoin="round" stroke-miterlimit="10"/>
            <path fill="none" stroke="rgb(32,32,32)" paint-order="fill stroke markers" d=" M 0.5 5.5 L 1288.5 5.5 M 0.5 5.5 L 1288.5 5.5 M 0.5 59.5 L 1288.5 59.5 M 0.5 112.5 L 1288.5 112.5 M 0.5 166.5 L 1288.5 166.5 M 0.5 220.5 L 1288.5 220.5 M 0.5 273.5 L 1288.5 273.5 M 0.5 327.5 L 1288.5 327.5 M 0.5 381.5 L 1288.5 381.5 M 0.5 434.5 L 1288.5 434.5 M 0.5 488.5 L 1288.5 488.5 M 0.5 542.5 L 1288.5 542.5 M 0.5 649.5 L 1288.5 649.5 M 0.5 703.5 L 1288.5 703.5" stroke-opacity="1" stroke-linecap="round" stroke-linejoin="round" stroke-miterlimit="10"/>
            <path fill="none" stroke="rgb(32,32,32)" paint-order="fill stroke markers" d="" stroke-opacity="0.23529411764705882" stroke-linecap="round" stroke-linejoin="round" stroke-miterlimit="10"/>
            <path fill="none" stroke="rgb(255,255,255)" paint-order="fill stroke markers" d=" M 107.5 -0.5 L 107.5 704.5" stroke-opacity="1" stroke-miterlimit="10"/>
            <path fill="none" stroke="rgb(255,255,255)" paint-order="fill stroke markers" d=" M 0.5 595.5 L 1287.5 595.5" stroke-opacity="1" stroke-miterlimit="10"/>
            <text fill="rgb(255,255,255)" stroke="none" font-family="geogebra-sans-serif, sans-serif" font-size="12px" font-style="normal" font-weight="normal" text-decoration="normal" x="48" y="611" text-anchor="start" dominant-baseline="alphabetic" fill-opacity="1">–1</text>
            <text fill="none" stroke="rgb(0,0,0)" font-family="geogebra-sans-serif, sans-serif" font-size="12px" font-style="normal" font-weight="normal" text-decoration="normal" x="48" y="611" text-anchor="start" dominant-baseline="alphabetic" stroke-opacity="1" stroke-linejoin="bevel" stroke-miterlimit="10" stroke-width="3">–1</text>
            <text fill="rgb(255,255,255)" stroke="none" font-family="geogebra-sans-serif, sans-serif" font-size="12px" font-style="normal" font-weight="normal" text-decoration="normal" x="48" y="611" text-anchor="start" dominant-baseline="alphabetic" fill-opacity="1">–1</text>
            <text fill="rgb(255,255,255)" stroke="none" font-family="geogebra-sans-serif, sans-serif" font-size="12px" font-style="normal" font-weight="normal" text-decoration="normal" x="159" y="611" text-anchor="start" dominant-baseline="alphabetic" fill-opacity="1">1</text>
            <text fill="none" stroke="rgb(0,0,0)" font-family="geogebra-sans-serif, sans-serif" font-size="12px" font-style="normal" font-weight="normal" text-decoration="normal" x="159" y="611" text-anchor="start" dominant-baseline="alphabetic" stroke-opacity="1" stroke-linejoin="bevel" stroke-miterlimit="10" stroke-width="3">1</text>
            <text fill="rgb(255,255,255)" stroke="none" font-family="geogebra-sans-serif, sans-serif" font-size="12px" font-style="normal" font-weight="normal" text-decoration="normal" x="159" y="611" text-anchor="start" dominant-baseline="alphabetic" fill-opacity="1">1</text>
            <text fill="rgb(255,255,255)" stroke="none" font-family="geogebra-sans-serif, sans-serif" font-size="12px" font-style="normal" font-weight="normal" text-decoration="normal" x="212" y="611" text-anchor="start" dominant-baseline="alphabetic" fill-opacity="1">2</text>
            <text fill="none" stroke="rgb(0,0,0)" font-family="geogebra-sans-serif, sans-serif" font-size="12px" font-style="normal" font-weight="normal" text-decoration="normal" x="212" y="611" text-anchor="start" dominant-baseline="alphabetic" stroke-opacity="1" stroke-linejoin="bevel" stroke-miterlimit="10" stroke-width="3">2</text>
            <text fill="rgb(255,255,255)" stroke="none" font-family="geogebra-sans-serif, sans-serif" font-size="12px" font-style="normal" font-weight="normal" text-decoration="normal" x="212" y="611" text-anchor="start" dominant-baseline="alphabetic" fill-opacity="1">2</text>
            <text fill="rgb(255,255,255)" stroke="none" font-family="geogebra-sans-serif, sans-serif" font-size="12px" font-style="normal" font-weight="normal" text-decoration="normal" x="266" y="611" text-anchor="start" dominant-baseline="alphabetic" fill-opacity="1">3</text>
            <text fill="none" stroke="rgb(0,0,0)" font-family="geogebra-sans-serif, sans-serif" font-size="12px" font-style="normal" font-weight="normal" text-decoration="normal" x="266" y="611" text-anchor="start" dominant-baseline="alphabetic" stroke-opacity="1" stroke-linejoin="bevel" stroke-miterlimit="10" stroke-width="3">3</text>
            <text fill="rgb(255,255,255)" stroke="none" font-family="geogebra-sans-serif, sans-serif" font-size="12px" font-style="normal" font-weight="normal" text-decoration="normal" x="266" y="611" text-anchor="start" dominant-baseline="alphabetic" fill-opacity="1">3</text>
            <text fill="rgb(255,255,255)" stroke="none" font-family="geogebra-sans-serif, sans-serif" font-size="12px" font-style="normal" font-weight="normal" text-decoration="normal" x="319" y="611" text-anchor="start" dominant-baseline="alphabetic" fill-opacity="1">4</text>
            <text fill="none" stroke="rgb(0,0,0)" font-family="geogebra-sans-serif, sans-serif" font-size="12px" font-style="normal" font-weight="normal" text-decoration="normal" x="319" y="611" text-anchor="start" dominant-baseline="alphabetic" stroke-opacity="1" stroke-linejoin="bevel" stroke-miterlimit="10" stroke-width="3">4</text>
            <text fill="rgb(255,255,255)" stroke="none" font-family="geogebra-sans-serif, sans-serif" font-size="12px" font-style="normal" font-weight="normal" text-decoration="normal" x="319" y="611" text-anchor="start" dominant-baseline="alphabetic" fill-opacity="1">4</text>
            <text fill="rgb(255,255,255)" stroke="none" font-family="geogebra-sans-serif, sans-serif" font-size="12px" font-style="normal" font-weight="normal" text-decoration="normal" x="373" y="611" text-anchor="start" dominant-baseline="alphabetic" fill-opacity="1">5</text>
            <text fill="none" stroke="rgb(0,0,0)" font-family="geogebra-sans-serif, sans-serif" font-size="12px" font-style="normal" font-weight="normal" text-decoration="normal" x="373" y="611" text-anchor="start" dominant-baseline="alphabetic" stroke-opacity="1" stroke-linejoin="bevel" stroke-miterlimit="10" stroke-width="3">5</text>
            <text fill="rgb(255,255,255)" stroke="none" font-family="geogebra-sans-serif, sans-serif" font-size="12px" font-style="normal" font-weight="normal" text-decoration="normal" x="373" y="611" text-anchor="start" dominant-baseline="alphabetic" fill-opacity="1">5</text>
            <text fill="rgb(255,255,255)" stroke="none" font-family="geogebra-sans-serif, sans-serif" font-size="12px" font-style="normal" font-weight="normal" text-decoration="normal" x="427" y="611" text-anchor="start" dominant-baseline="alphabetic" fill-opacity="1">6</text>
            <text fill="none" stroke="rgb(0,0,0)" font-family="geogebra-sans-serif, sans-serif" font-size="12px" font-style="normal" font-weight="normal" text-decoration="normal" x="427" y="611" text-anchor="start" dominant-baseline="alphabetic" stroke-opacity="1" stroke-linejoin="bevel" stroke-miterlimit="10" stroke-width="3">6</text>
            <text fill="rgb(255,255,255)" stroke="none" font-family="geogebra-sans-serif, sans-serif" font-size="12px" font-style="normal" font-weight="normal" text-decoration="normal" x="427" y="611" text-anchor="start" dominant-baseline="alphabetic" fill-opacity="1">6</text>
            <text fill="rgb(255,255,255)" stroke="none" font-family="geogebra-sans-serif, sans-serif" font-size="12px" font-style="normal" font-weight="normal" text-decoration="normal" x="480" y="611" text-anchor="start" dominant-baseline="alphabetic" fill-opacity="1">7</text>
            <text fill="none" stroke="rgb(0,0,0)" font-family="geogebra-sans-serif, sans-serif" font-size="12px" font-style="normal" font-weight="normal" text-decoration="normal" x="480" y="611" text-anchor="start" dominant-baseline="alphabetic" stroke-opacity="1" stroke-linejoin="bevel" stroke-miterlimit="10" stroke-width="3">7</text>
            <text fill="rgb(255,255,255)" stroke="none" font-family="geogebra-sans-serif, sans-serif" font-size="12px" font-style="normal" font-weight="normal" text-decoration="normal" x="480" y="611" text-anchor="start" dominant-baseline="alphabetic" fill-opacity="1">7</text>
            <text fill="rgb(255,255,255)" stroke="none" font-family="geogebra-sans-serif, sans-serif" font-size="12px" font-style="normal" font-weight="normal" text-decoration="normal" x="534" y="611" text-anchor="start" dominant-baseline="alphabetic" fill-opacity="1">8</text>
            <text fill="none" stroke="rgb(0,0,0)" font-family="geogebra-sans-serif, sans-serif" font-size="12px" font-style="normal" font-weight="normal" text-decoration="normal" x="534" y="611" text-anchor="start" dominant-baseline="alphabetic" stroke-opacity="1" stroke-linejoin="bevel" stroke-miterlimit="10" stroke-width="3">8</text>
            <text fill="rgb(255,255,255)" stroke="none" font-family="geogebra-sans-serif, sans-serif" font-size="12px" font-style="normal" font-weight="normal" text-decoration="normal" x="534" y="611" text-anchor="start" dominant-baseline="alphabetic" fill-opacity="1">8</text>
            <text fill="rgb(255,255,255)" stroke="none" font-family="geogebra-sans-serif, sans-serif" font-size="12px" font-style="normal" font-weight="normal" text-decoration="normal" x="588" y="611" text-anchor="start" dominant-baseline="alphabetic" fill-opacity="1">9</text>
            <text fill="none" stroke="rgb(0,0,0)" font-family="geogebra-sans-serif, sans-serif" font-size="12px" font-style="normal" font-weight="normal" text-decoration="normal" x="588" y="611" text-anchor="start" dominant-baseline="alphabetic" stroke-opacity="1" stroke-linejoin="bevel" stroke-miterlimit="10" stroke-width="3">9</text>
            <text fill="rgb(255,255,255)" stroke="none" font-family="geogebra-sans-serif, sans-serif" font-size="12px" font-style="normal" font-weight="normal" text-decoration="normal" x="588" y="611" text-anchor="start" dominant-baseline="alphabetic" fill-opacity="1">9</text>
            <text fill="rgb(255,255,255)" stroke="none" font-family="geogebra-sans-serif, sans-serif" font-size="12px" font-style="normal" font-weight="normal" text-decoration="normal" x="638" y="611" text-anchor="start" dominant-baseline="alphabetic" fill-opacity="1">10</text>
            <text fill="none" stroke="rgb(0,0,0)" font-family="geogebra-sans-serif, sans-serif" font-size="12px" font-style="normal" font-weight="normal" text-decoration="normal" x="638" y="611" text-anchor="start" dominant-baseline="alphabetic" stroke-opacity="1" stroke-linejoin="bevel" stroke-miterlimit="10" stroke-width="3">10</text>
            <text fill="rgb(255,255,255)" stroke="none" font-family="geogebra-sans-serif, sans-serif" font-size="12px" font-style="normal" font-weight="normal" text-decoration="normal" x="638" y="611" text-anchor="start" dominant-baseline="alphabetic" fill-opacity="1">10</text>
            <text fill="rgb(255,255,255)" stroke="none" font-family="geogebra-sans-serif, sans-serif" font-size="12px" font-style="normal" font-weight="normal" text-decoration="normal" x="692" y="611" text-anchor="start" dominant-baseline="alphabetic" fill-opacity="1">11</text>
            <text fill="none" stroke="rgb(0,0,0)" font-family="geogebra-sans-serif, sans-serif" font-size="12px" font-style="normal" font-weight="normal" text-decoration="normal" x="692" y="611" text-anchor="start" dominant-baseline="alphabetic" stroke-opacity="1" stroke-linejoin="bevel" stroke-miterlimit="10" stroke-width="3">11</text>
            <text fill="rgb(255,255,255)" stroke="none" font-family="geogebra-sans-serif, sans-serif" font-size="12px" font-style="normal" font-weight="normal" text-decoration="normal" x="692" y="611" text-anchor="start" dominant-baseline="alphabetic" fill-opacity="1">11</text>
            <text fill="rgb(255,255,255)" stroke="none" font-family="geogebra-sans-serif, sans-serif" font-size="12px" font-style="normal" font-weight="normal" text-decoration="normal" x="746" y="611" text-anchor="start" dominant-baseline="alphabetic" fill-opacity="1">12</text>
            <text fill="none" stroke="rgb(0,0,0)" font-family="geogebra-sans-serif, sans-serif" font-size="12px" font-style="normal" font-weight="normal" text-decoration="normal" x="746" y="611" text-anchor="start" dominant-baseline="alphabetic" stroke-opacity="1" stroke-linejoin="bevel" stroke-miterlimit="10" stroke-width="3">12</text>
            <text fill="rgb(255,255,255)" stroke="none" font-family="geogebra-sans-serif, sans-serif" font-size="12px" font-style="normal" font-weight="normal" text-decoration="normal" x="746" y="611" text-anchor="start" dominant-baseline="alphabetic" fill-opacity="1">12</text>
            <text fill="rgb(255,255,255)" stroke="none" font-family="geogebra-sans-serif, sans-serif" font-size="12px" font-style="normal" font-weight="normal" text-decoration="normal" x="799" y="611" text-anchor="start" dominant-baseline="alphabetic" fill-opacity="1">13</text>
            <text fill="none" stroke="rgb(0,0,0)" font-family="geogebra-sans-serif, sans-serif" font-size="12px" font-style="normal" font-weight="normal" text-decoration="normal" x="799" y="611" text-anchor="start" dominant-baseline="alphabetic" stroke-opacity="1" stroke-linejoin="bevel" stroke-miterlimit="10" stroke-width="3">13</text>
            <text fill="rgb(255,255,255)" stroke="none" font-family="geogebra-sans-serif, sans-serif" font-size="12px" font-style="normal" font-weight="normal" text-decoration="normal" x="799" y="611" text-anchor="start" dominant-baseline="alphabetic" fill-opacity="1">13</text>
            <text fill="rgb(255,255,255)" stroke="none" font-family="geogebra-sans-serif, sans-serif" font-size="12px" font-style="normal" font-weight="normal" text-decoration="normal" x="853" y="611" text-anchor="start" dominant-baseline="alphabetic" fill-opacity="1">14</text>
            <text fill="none" stroke="rgb(0,0,0)" font-family="geogebra-sans-serif, sans-serif" font-size="12px" font-style="normal" font-weight="normal" text-decoration="normal" x="853" y="611" text-anchor="start" dominant-baseline="alphabetic" stroke-opacity="1" stroke-linejoin="bevel" stroke-miterlimit="10" stroke-width="3">14</text>
            <text fill="rgb(255,255,255)" stroke="none" font-family="geogebra-sans-serif, sans-serif" font-size="12px" font-style="normal" font-weight="normal" text-decoration="normal" x="853" y="611" text-anchor="start" dominant-baseline="alphabetic" fill-opacity="1">14</text>
            <text fill="rgb(255,255,255)" stroke="none" font-family="geogebra-sans-serif, sans-serif" font-size="12px" font-style="normal" font-weight="normal" text-decoration="normal" x="907" y="611" text-anchor="start" dominant-baseline="alphabetic" fill-opacity="1">15</text>
            <text fill="none" stroke="rgb(0,0,0)" font-family="geogebra-sans-serif, sans-serif" font-size="12px" font-style="normal" font-weight="normal" text-decoration="normal" x="907" y="611" text-anchor="start" dominant-baseline="alphabetic" stroke-opacity="1" stroke-linejoin="bevel" stroke-miterlimit="10" stroke-width="3">15</text>
            <text fill="rgb(255,255,255)" stroke="none" font-family="geogebra-sans-serif, sans-serif" font-size="12px" font-style="normal" font-weight="normal" text-decoration="normal" x="907" y="611" text-anchor="start" dominant-baseline="alphabetic" fill-opacity="1">15</text>
            <text fill="rgb(255,255,255)" stroke="none" font-family="geogebra-sans-serif, sans-serif" font-size="12px" font-style="normal" font-weight="normal" text-decoration="normal" x="960" y="611" text-anchor="start" dominant-baseline="alphabetic" fill-opacity="1">16</text>
            <text fill="none" stroke="rgb(0,0,0)" font-family="geogebra-sans-serif, sans-serif" font-size="12px" font-style="normal" font-weight="normal" text-decoration="normal" x="960" y="611" text-anchor="start" dominant-baseline="alphabetic" stroke-opacity="1" stroke-linejoin="bevel" stroke-miterlimit="10" stroke-width="3">16</text>
            <text fill="rgb(255,255,255)" stroke="none" font-family="geogebra-sans-serif, sans-serif" font-size="12px" font-style="normal" font-weight="normal" text-decoration="normal" x="960" y="611" text-anchor="start" dominant-baseline="alphabetic" fill-opacity="1">16</text>
            <text fill="rgb(255,255,255)" stroke="none" font-family="geogebra-sans-serif, sans-serif" font-size="12px" font-style="normal" font-weight="normal" text-decoration="normal" x="1014" y="611" text-anchor="start" dominant-baseline="alphabetic" fill-opacity="1">17</text>
            <text fill="none" stroke="rgb(0,0,0)" font-family="geogebra-sans-serif, sans-serif" font-size="12px" font-style="normal" font-weight="normal" text-decoration="normal" x="1014" y="611" text-anchor="start" dominant-baseline="alphabetic" stroke-opacity="1" stroke-linejoin="bevel" stroke-miterlimit="10" stroke-width="3">17</text>
            <text fill="rgb(255,255,255)" stroke="none" font-family="geogebra-sans-serif, sans-serif" font-size="12px" font-style="normal" font-weight="normal" text-decoration="normal" x="1014" y="611" text-anchor="start" dominant-baseline="alphabetic" fill-opacity="1">17</text>
            <text fill="rgb(255,255,255)" stroke="none" font-family="geogebra-sans-serif, sans-serif" font-size="12px" font-style="normal" font-weight="normal" text-decoration="normal" x="1068" y="611" text-anchor="start" dominant-baseline="alphabetic" fill-opacity="1">18</text>
            <text fill="none" stroke="rgb(0,0,0)" font-family="geogebra-sans-serif, sans-serif" font-size="12px" font-style="normal" font-weight="normal" text-decoration="normal" x="1068" y="611" text-anchor="start" dominant-baseline="alphabetic" stroke-opacity="1" stroke-linejoin="bevel" stroke-miterlimit="10" stroke-width="3">18</text>
            <text fill="rgb(255,255,255)" stroke="none" font-family="geogebra-sans-serif, sans-serif" font-size="12px" font-style="normal" font-weight="normal" text-decoration="normal" x="1068" y="611" text-anchor="start" dominant-baseline="alphabetic" fill-opacity="1">18</text>
            <text fill="rgb(255,255,255)" stroke="none" font-family="geogebra-sans-serif, sans-serif" font-size="12px" font-style="normal" font-weight="normal" text-decoration="normal" x="1121" y="611" text-anchor="start" dominant-baseline="alphabetic" fill-opacity="1">19</text>
            <text fill="none" stroke="rgb(0,0,0)" font-family="geogebra-sans-serif, sans-serif" font-size="12px" font-style="normal" font-weight="normal" text-decoration="normal" x="1121" y="611" text-anchor="start" dominant-baseline="alphabetic" stroke-opacity="1" stroke-linejoin="bevel" stroke-miterlimit="10" stroke-width="3">19</text>
            <text fill="rgb(255,255,255)" stroke="none" font-family="geogebra-sans-serif, sans-serif" font-size="12px" font-style="normal" font-weight="normal" text-decoration="normal" x="1121" y="611" text-anchor="start" dominant-baseline="alphabetic" fill-opacity="1">19</text>
            <text fill="rgb(255,255,255)" stroke="none" font-family="geogebra-sans-serif, sans-serif" font-size="12px" font-style="normal" font-weight="normal" text-decoration="normal" x="1175" y="611" text-anchor="start" dominant-baseline="alphabetic" fill-opacity="1">20</text>
            <text fill="none" stroke="rgb(0,0,0)" font-family="geogebra-sans-serif, sans-serif" font-size="12px" font-style="normal" font-weight="normal" text-decoration="normal" x="1175" y="611" text-anchor="start" dominant-baseline="alphabetic" stroke-opacity="1" stroke-linejoin="bevel" stroke-miterlimit="10" stroke-width="3">20</text>
            <text fill="rgb(255,255,255)" stroke="none" font-family="geogebra-sans-serif, sans-serif" font-size="12px" font-style="normal" font-weight="normal" text-decoration="normal" x="1175" y="611" text-anchor="start" dominant-baseline="alphabetic" fill-opacity="1">20</text>
            <text fill="rgb(255,255,255)" stroke="none" font-family="geogebra-sans-serif, sans-serif" font-size="12px" font-style="normal" font-weight="normal" text-decoration="normal" x="1229" y="611" text-anchor="start" dominant-baseline="alphabetic" fill-opacity="1">21</text>
            <text fill="none" stroke="rgb(0,0,0)" font-family="geogebra-sans-serif, sans-serif" font-size="12px" font-style="normal" font-weight="normal" text-decoration="normal" x="1229" y="611" text-anchor="start" dominant-baseline="alphabetic" stroke-opacity="1" stroke-linejoin="bevel" stroke-miterlimit="10" stroke-width="3">21</text>
            <text fill="rgb(255,255,255)" stroke="none" font-family="geogebra-sans-serif, sans-serif" font-size="12px" font-style="normal" font-weight="normal" text-decoration="normal" x="1229" y="611" text-anchor="start" dominant-baseline="alphabetic" fill-opacity="1">21</text>
            <text fill="rgb(255,255,255)" stroke="none" font-family="geogebra-sans-serif, sans-serif" font-size="12px" font-style="normal" font-weight="normal" text-decoration="normal" x="87" y="654" text-anchor="start" dominant-baseline="alphabetic" fill-opacity="1">–1</text>
            <text fill="none" stroke="rgb(0,0,0)" font-family="geogebra-sans-serif, sans-serif" font-size="12px" font-style="normal" font-weight="normal" text-decoration="normal" x="87" y="654" text-anchor="start" dominant-baseline="alphabetic" stroke-opacity="1" stroke-linejoin="bevel" stroke-miterlimit="10" stroke-width="3">–1</text>
            <text fill="rgb(255,255,255)" stroke="none" font-family="geogebra-sans-serif, sans-serif" font-size="12px" font-style="normal" font-weight="normal" text-decoration="normal" x="87" y="654" text-anchor="start" dominant-baseline="alphabetic" fill-opacity="1">–1</text>
            <text fill="rgb(255,255,255)" stroke="none" font-family="geogebra-sans-serif, sans-serif" font-size="12px" font-style="normal" font-weight="normal" text-decoration="normal" x="93" y="547" text-anchor="start" dominant-baseline="alphabetic" fill-opacity="1">1</text>
            <text fill="none" stroke="rgb(0,0,0)" font-family="geogebra-sans-serif, sans-serif" font-size="12px" font-style="normal" font-weight="normal" text-decoration="normal" x="93" y="547" text-anchor="start" dominant-baseline="alphabetic" stroke-opacity="1" stroke-linejoin="bevel" stroke-miterlimit="10" stroke-width="3">1</text>
            <text fill="rgb(255,255,255)" stroke="none" font-family="geogebra-sans-serif, sans-serif" font-size="12px" font-style="normal" font-weight="normal" text-decoration="normal" x="93" y="547" text-anchor="start" dominant-baseline="alphabetic" fill-opacity="1">1</text>
            <text fill="rgb(255,255,255)" stroke="none" font-family="geogebra-sans-serif, sans-serif" font-size="12px" font-style="normal" font-weight="normal" text-decoration="normal" x="93" y="493" text-anchor="start" dominant-baseline="alphabetic" fill-opacity="1">2</text>
            <text fill="none" stroke="rgb(0,0,0)" font-family="geogebra-sans-serif, sans-serif" font-size="12px" font-style="normal" font-weight="normal" text-decoration="normal" x="93" y="493" text-anchor="start" dominant-baseline="alphabetic" stroke-opacity="1" stroke-linejoin="bevel" stroke-miterlimit="10" stroke-width="3">2</text>
            <text fill="rgb(255,255,255)" stroke="none" font-family="geogebra-sans-serif, sans-serif" font-size="12px" font-style="normal" font-weight="normal" text-decoration="normal" x="93" y="493" text-anchor="start" dominant-baseline="alphabetic" fill-opacity="1">2</text>
            <text fill="rgb(255,255,255)" stroke="none" font-family="geogebra-sans-serif, sans-serif" font-size="12px" font-style="normal" font-weight="normal" text-decoration="normal" x="93" y="439" text-anchor="start" dominant-baseline="alphabetic" fill-opacity="1">3</text>
            <text fill="none" stroke="rgb(0,0,0)" font-family="geogebra-sans-serif, sans-serif" font-size="12px" font-style="normal" font-weight="normal" text-decoration="normal" x="93" y="439" text-anchor="start" dominant-baseline="alphabetic" stroke-opacity="1" stroke-linejoin="bevel" stroke-miterlimit="10" stroke-width="3">3</text>
            <text fill="rgb(255,255,255)" stroke="none" font-family="geogebra-sans-serif, sans-serif" font-size="12px" font-style="normal" font-weight="normal" text-decoration="normal" x="93" y="439" text-anchor="start" dominant-baseline="alphabetic" fill-opacity="1">3</text>
            <text fill="rgb(255,255,255)" stroke="none" font-family="geogebra-sans-serif, sans-serif" font-size="12px" font-style="normal" font-weight="normal" text-decoration="normal" x="93" y="386" text-anchor="start" dominant-baseline="alphabetic" fill-opacity="1">4</text>
            <text fill="none" stroke="rgb(0,0,0)" font-family="geogebra-sans-serif, sans-serif" font-size="12px" font-style="normal" font-weight="normal" text-decoration="normal" x="93" y="386" text-anchor="start" dominant-baseline="alphabetic" stroke-opacity="1" stroke-linejoin="bevel" stroke-miterlimit="10" stroke-width="3">4</text>
            <text fill="rgb(255,255,255)" stroke="none" font-family="geogebra-sans-serif, sans-serif" font-size="12px" font-style="normal" font-weight="normal" text-decoration="normal" x="93" y="386" text-anchor="start" dominant-baseline="alphabetic" fill-opacity="1">4</text>
            <text fill="rgb(255,255,255)" stroke="none" font-family="geogebra-sans-serif, sans-serif" font-size="12px" font-style="normal" font-weight="normal" text-decoration="normal" x="93" y="332" text-anchor="start" dominant-baseline="alphabetic" fill-opacity="1">5</text>
            <text fill="none" stroke="rgb(0,0,0)" font-family="geogebra-sans-serif, sans-serif" font-size="12px" font-style="normal" font-weight="normal" text-decoration="normal" x="93" y="332" text-anchor="start" dominant-baseline="alphabetic" stroke-opacity="1" stroke-linejoin="bevel" stroke-miterlimit="10" stroke-width="3">5</text>
            <text fill="rgb(255,255,255)" stroke="none" font-family="geogebra-sans-serif, sans-serif" font-size="12px" font-style="normal" font-weight="normal" text-decoration="normal" x="93" y="332" text-anchor="start" dominant-baseline="alphabetic" fill-opacity="1">5</text>
            <text fill="rgb(255,255,255)" stroke="none" font-family="geogebra-sans-serif, sans-serif" font-size="12px" font-style="normal" font-weight="normal" text-decoration="normal" x="93" y="278" text-anchor="start" dominant-baseline="alphabetic" fill-opacity="1">6</text>
            <text fill="none" stroke="rgb(0,0,0)" font-family="geogebra-sans-serif, sans-serif" font-size="12px" font-style="normal" font-weight="normal" text-decoration="normal" x="93" y="278" text-anchor="start" dominant-baseline="alphabetic" stroke-opacity="1" stroke-linejoin="bevel" stroke-miterlimit="10" stroke-width="3">6</text>
            <text fill="rgb(255,255,255)" stroke="none" font-family="geogebra-sans-serif, sans-serif" font-size="12px" font-style="normal" font-weight="normal" text-decoration="normal" x="93" y="278" text-anchor="start" dominant-baseline="alphabetic" fill-opacity="1">6</text>
            <text fill="rgb(255,255,255)" stroke="none" font-family="geogebra-sans-serif, sans-serif" font-size="12px" font-style="normal" font-weight="normal" text-decoration="normal" x="93" y="225" text-anchor="start" dominant-baseline="alphabetic" fill-opacity="1">7</text>
            <text fill="none" stroke="rgb(0,0,0)" font-family="geogebra-sans-serif, sans-serif" font-size="12px" font-style="normal" font-weight="normal" text-decoration="normal" x="93" y="225" text-anchor="start" dominant-baseline="alphabetic" stroke-opacity="1" stroke-linejoin="bevel" stroke-miterlimit="10" stroke-width="3">7</text>
            <text fill="rgb(255,255,255)" stroke="none" font-family="geogebra-sans-serif, sans-serif" font-size="12px" font-style="normal" font-weight="normal" text-decoration="normal" x="93" y="225" text-anchor="start" dominant-baseline="alphabetic" fill-opacity="1">7</text>
            <text fill="rgb(255,255,255)" stroke="none" font-family="geogebra-sans-serif, sans-serif" font-size="12px" font-style="normal" font-weight="normal" text-decoration="normal" x="93" y="171" text-anchor="start" dominant-baseline="alphabetic" fill-opacity="1">8</text>
            <text fill="none" stroke="rgb(0,0,0)" font-family="geogebra-sans-serif, sans-serif" font-size="12px" font-style="normal" font-weight="normal" text-decoration="normal" x="93" y="171" text-anchor="start" dominant-baseline="alphabetic" stroke-opacity="1" stroke-linejoin="bevel" stroke-miterlimit="10" stroke-width="3">8</text>
            <text fill="rgb(255,255,255)" stroke="none" font-family="geogebra-sans-serif, sans-serif" font-size="12px" font-style="normal" font-weight="normal" text-decoration="normal" x="93" y="171" text-anchor="start" dominant-baseline="alphabetic" fill-opacity="1">8</text>
            <text fill="rgb(255,255,255)" stroke="none" font-family="geogebra-sans-serif, sans-serif" font-size="12px" font-style="normal" font-weight="normal" text-decoration="normal" x="93" y="117" text-anchor="start" dominant-baseline="alphabetic" fill-opacity="1">9</text>
            <text fill="none" stroke="rgb(0,0,0)" font-family="geogebra-sans-serif, sans-serif" font-size="12px" font-style="normal" font-weight="normal" text-decoration="normal" x="93" y="117" text-anchor="start" dominant-baseline="alphabetic" stroke-opacity="1" stroke-linejoin="bevel" stroke-miterlimit="10" stroke-width="3">9</text>
            <text fill="rgb(255,255,255)" stroke="none" font-family="geogebra-sans-serif, sans-serif" font-size="12px" font-style="normal" font-weight="normal" text-decoration="normal" x="93" y="117" text-anchor="start" dominant-baseline="alphabetic" fill-opacity="1">9</text>
            <text fill="rgb(255,255,255)" stroke="none" font-family="geogebra-sans-serif, sans-serif" font-size="12px" font-style="normal" font-weight="normal" text-decoration="normal" x="87" y="64" text-anchor="start" dominant-baseline="alphabetic" fill-opacity="1">10</text>
            <text fill="none" stroke="rgb(0,0,0)" font-family="geogebra-sans-serif, sans-serif" font-size="12px" font-style="normal" font-weight="normal" text-decoration="normal" x="87" y="64" text-anchor="start" dominant-baseline="alphabetic" stroke-opacity="1" stroke-linejoin="bevel" stroke-miterlimit="10" stroke-width="3">10</text>
            <text fill="rgb(255,255,255)" stroke="none" font-family="geogebra-sans-serif, sans-serif" font-size="12px" font-style="normal" font-weight="normal" text-decoration="normal" x="87" y="64" text-anchor="start" dominant-baseline="alphabetic" fill-opacity="1">10</text>
            <text fill="rgb(255,255,255)" stroke="none" font-family="geogebra-sans-serif, sans-serif" font-size="12px" font-style="normal" font-weight="normal" text-decoration="normal" x="93" y="611" text-anchor="start" dominant-baseline="alphabetic" fill-opacity="1">0</text>
            <text fill="none" stroke="rgb(0,0,0)" font-family="geogebra-sans-serif, sans-serif" font-size="12px" font-style="normal" font-weight="normal" text-decoration="normal" x="93" y="611" text-anchor="start" dominant-baseline="alphabetic" stroke-opacity="1" stroke-linejoin="bevel" stroke-miterlimit="10" stroke-width="3">0</text>
            <text fill="rgb(255,255,255)" stroke="none" font-family="geogebra-sans-serif, sans-serif" font-size="12px" font-style="normal" font-weight="normal" text-decoration="normal" x="93" y="611" text-anchor="start" dominant-baseline="alphabetic" fill-opacity="1">0</text>
            <path fill="none" stroke="rgb(255,102,0)" paint-order="fill stroke markers" d=" M 286.78125 713.7108237242082 L 288.0390625 703.8654161428791 L 289.296875 694.1603148435934 L 290.5546875 684.5946907019 L 291.8125 675.1677145933489 L 293.0703125 665.8785573934894 L 294.328125 656.7263899778707 L 295.5859375 647.7103832220419 L 296.84375 638.8297080015523 L 298.1015625 630.0835351919512 L 299.359375 621.4710356687885 L 300.6171875 612.9913803076131 L 301.875 604.6437399839741 L 303.1328125 596.4272855734212 L 304.390625 588.3411879515036 L 305.6484375 580.3846179937702 L 306.90625 572.5567465757712 L 308.1640625 564.856744573055 L 309.421875 557.283782861171 L 310.6796875 549.8370323156693 L 311.9375 542.5156638120986 L 313.1953125 535.3188482260086 L 314.453125 528.2457564329483 L 315.7109375 521.2955593084671 L 316.96875 514.4674277281144 L 318.2265625 507.7605325674392 L 319.484375 501.1740447019914 L 320.7421875 494.70713500731983 L 322 488.35897435897397 L 323.2578125 482.1287336325031 L 324.515625 476.01558370345634 L 325.7734375 470.0186954473833 L 327.03125 464.1372397398334 L 328.2890625 458.3703874563556 L 329.546875 452.71730947249944 L 330.8046875 447.17717666381407 L 332.0625 441.7491599058491 L 333.3203125 436.4324300741537 L 334.578125 431.226158044277 L 335.8359375 426.1295146917683 L 337.09375 421.14167089217733 L 339.609375 411.48906545394493 L 342.125 402.26170873397416 L 344.640625 393.45296773665973 L 347.15625 385.05620946639624 L 349.671875 377.0648009275776 L 352.18749999999994 369.47210912459934 L 354.70312499999994 362.2715010618551 L 357.21874999999994 355.4563437437399 L 359.73437499999994 349.0200041746481 L 362.25000000000006 342.955849358974 L 364.76562500000006 337.25724630111284 L 367.28125000000006 331.91756200545854 L 372.31250000000006 322.2884177183493 L 377.34375000000006 314.0153525328024 L 382.375 307.0453024839744 L 387.40625 301.32520360702125 L 392.4375 296.8019919370996 L 397.46875 293.4226035093652 L 402.5 291.1339743589746 L 405.015625 290.38211202376954 L 407.53125 289.883040521084 L 412.5625 289.6167380308497 L 415.07812499999994 289.8362410520899 L 417.59375000000006 290.28200292342785 L 422.62500000000006 291.8257712339748 L 427.65625000000006 294.1949789976467 L 432.68750000000006 297.33656224959987 L 437.71875 301.1974570249905 L 442.75 305.7245993589749 L 447.78125 310.8649252867093 L 452.8125 316.56537084334997 L 457.84375000000006 322.7728720640532 L 462.87500000000006 329.4343649839751 L 467.90625000000006 336.496785638272 L 472.93750000000006 343.90707006210016 L 477.96875000000006 351.61215429061576 L 483.00000000000006 359.55897435897515 L 488.03125000000006 367.6944663023346 L 493.0625 375.9655661558502 L 498.09375 384.3192099546783 L 503.125 392.70233373397514 L 508.15625 401.06187352889697 L 513.1875 409.34476537460023 L 518.21875 417.4979453062408 L 523.25 425.46834935897516 L 528.28125 433.2029135679595 L 533.3125 440.6485739683501 L 538.34375 447.75226659530324 L 543.375 454.460927483975 L 548.40625 460.7214926695218 L 553.4375 466.4808981870999 L 558.46875 471.6860800718655 L 563.5 476.2839743589748 L 568.53125 480.22151708358416 L 573.5625 483.4456442808497 L 578.59375 485.9032919859277 L 583.625 487.5413962339745 L 588.65625 488.30689306014625 L 591.171875 488.34583120101536 L 593.6875 488.1467184995993 L 598.71875 487.00780858748976 L 601.234375 486.0547453855854 L 603.75 484.83709935897406 L 608.78125 481.58152684920833 L 613.8125 477.1880270933488 L 618.8437500000001 471.6035361265517 L 623.875 464.7749899839734 L 628.90625 456.6493247007701 L 633.9375 447.17347631209805 L 636.453125 441.9126509641976 L 638.96875 436.29438085311347 L 641.484375 430.3120329832404 L 644 423.95897435897274 L 646.515625 417.22857198470507 L 649.03125 410.1141928648319 L 651.546875 402.6092040037479 L 654.0625 394.7069724058474 L 656.578125 386.40086507552496 L 659.09375 377.68424901717526 L 661.609375 368.5504912351928 L 664.125 358.99295873397193 L 666.640625 349.0050185179074 L 667.8984374999999 343.84757270568207 L 669.1562499999999 338.58003759139365 L 670.4140624999999 333.2015840505916 L 671.671875 327.7113829588248 L 672.9296875 322.1086051916433 L 674.1875 316.3924216245961 L 675.4453125 310.5620031332325 L 676.703125 304.6165205931019 L 677.9609375 298.5551448797534 L 679.21875 292.37704686873656 L 680.4765625 286.0813974356005 L 681.734375 279.6673674558946 L 682.9921875 273.13412780516825 L 684.25 266.48084935897066 L 685.5078125 259.7067029928512 L 686.765625 252.81085958235923 L 688.0234375 245.79249000304395 L 689.28125 238.65076513045477 L 690.5390625 231.38485584014097 L 691.796875 223.9939330076519 L 693.0546875 216.4771675085368 L 694.3125 208.83373021834512 L 695.5703125 201.06279201262606 L 696.828125 193.16352376692896 L 698.0859375 185.13509635680322 L 699.34375 176.976680657798 L 700.6015625 168.6874475454627 L 701.859375 160.2665678953466 L 703.1171875 151.71321258299918 L 704.375 143.02655248396962 L 705.6328125 134.20575847380712 L 706.890625 125.25000142806124 L 708.1484375 116.15845222228114 L 709.40625 106.93028173201623 L 710.6640625 97.56466083281566 L 711.921875 88.06076040022896 L 713.1796875 78.41775130980534 L 714.4375 68.63480443709409 L 715.6953125 58.711090657644604 L 716.32421875 53.696187076502156 L 716.953125 48.645780847005994 L 717.58203125 43.55976832860006 L 718.2109375 38.43804588072794 L 718.83984375 33.280509862833014 L 719.46875 28.087056634359328 L 720.09765625 22.85758255475048 L 720.7265625 17.59198398344995 L 721.35546875 12.29015727990145 L 721.9843749999999 6.95199880354869 L 722.6132812499999 1.5774049138353803 L 723.2421874999999 -3.83372802979477 L 723.8710937499999 -9.281503667898392" stroke-opacity="0.5019607843137255" stroke-linejoin="round" stroke-miterlimit="10" stroke-width="2" stroke-dasharray="6,4"/>
            <path fill="none" stroke="rgb(255,102,0)" paint-order="fill stroke markers" d=" M 321.99999946333327 488.3589770423075 L 322 488.35897435897397 M 322 488.35897435897397 L 323.2578125 482.1287336325031 L 324.515625 476.0155837034565 L 325.77343749999994 470.0186954473835 L 327.03124999999994 464.13723973983355 L 328.28906249999994 458.37038745635584 L 329.54687499999994 452.71730947249944 L 330.80468749999994 447.17717666381424 L 332.06249999999994 441.7491599058491 L 333.32031249999994 436.4324300741537 L 334.57812499999994 431.226158044277 L 335.8359375 426.1295146917683 L 337.09375 421.14167089217733 L 339.609375 411.48906545394493 L 342.125 402.26170873397433 L 344.640625 393.45296773665973 L 347.15625 385.05620946639624 L 349.671875 377.0648009275776 L 352.18749999999994 369.47210912459934 L 354.70312499999994 362.2715010618551 L 357.21874999999994 355.4563437437399 L 359.73437499999994 349.0200041746481 L 362.24999999999994 342.9558493589743 L 364.76562499999994 337.25724630111296 L 367.28124999999994 331.9175620054588 L 372.3125 322.2884177183493 L 377.34375 314.0153525328025 L 382.375 307.0453024839745 L 387.40624999999994 301.32520360702136 L 392.4375 296.8019919370996 L 397.46875 293.4226035093652 L 402.5 291.1339743589746 L 405.015625 290.38211202376954 L 407.53125 289.883040521084 L 412.5625 289.6167380308497 L 415.07812499999994 289.8362410520899 L 417.59374999999994 290.2820029234278 L 422.62499999999994 291.8257712339747 L 427.65624999999994 294.1949789976467 L 432.6875 297.33656224959987 L 437.71875 301.1974570249905 L 442.74999999999994 305.7245993589749 L 447.78125 310.8649252867093 L 452.8125 316.56537084334997 L 457.84375 322.7728720640531 L 462.875 329.434364983975 L 467.90624999999994 336.4967856382719 L 472.93749999999994 343.90707006210005 L 477.96874999999994 351.61215429061565 L 482.99999999999994 359.558974358975 L 488.03124999999994 367.6944663023344 L 493.0625 375.96556615585007 L 498.09374999999994 384.3192099546782 L 503.12499999999994 392.702333733975 L 508.15625 401.06187352889697 L 513.1875 409.3447653746001 L 518.21875 417.4979453062407 L 523.2499999999999 425.46834935897505 L 528.2812499999999 433.2029135679594 L 533.3124999999999 440.64857396835 L 538.3437499999999 447.75226659530307 L 543.3749999999999 454.4609274839749 L 548.4062499999999 460.7214926695217 L 553.4374999999999 466.4808981870998 L 558.4687499999999 471.6860800718654 L 563.4999999999999 476.2839743589747 L 568.5312499999999 480.221517083584 L 573.5625 483.4456442808496 L 578.5937499999999 485.9032919859277 L 583.6249999999999 487.54139623397447 L 588.6562499999999 488.30689306014625 L 591.1718749999999 488.34583120101536 L 593.6874999999999 488.1467184995993 L 598.7187499999999 487.0078085874898 L 601.234375 486.0547453855854 L 603.75 484.83709935897406 L 608.78125 481.58152684920833 L 613.8125 477.1880270933488 L 618.84375 471.60353612655183 L 623.8749999999999 464.77498998397357 L 628.9062499999999 456.6493247007703 L 633.9374999999999 447.1734763120983 L 636.4531249999999 441.91265096419784 L 638.9687499999999 436.29438085311375 L 641.4843749999999 430.3120329832406 L 643.9999999999999 423.95897435897297 M 643.9999999999999 423.95897435897297 L 646.5156249999999 417.2285719847053 L 649.0312499999999 410.11419286483215 L 651.5468749999999 402.6092040037481 L 654.0624999999999 394.70697240584764 L 656.5781249999999 386.4008650755253 L 659.0937499999999 377.6842490171756 L 661.6093749999999 368.55049123519314 L 664.1249999999999 358.99295873397233 M 664.1249999999999 358.99295873397233 L 666.6406249999999 349.0050185179078 L 667.8984374999999 343.8475727056824 L 669.1562499999999 338.58003759139405 L 670.4140624999999 333.20158405059203 L 671.6718749999999 327.7113829588256 L 672.9296874999999 322.1086051916442 L 674.1874999999999 316.39242162459703 M 674.1874999999999 316.39242162459703 L 675.4453124999999 310.5620031332334 L 676.7031249999999 304.6165205931028 L 677.9609374999999 298.5551448797543 L 679.2187499999998 292.37704686873747 M 679.2187499999998 292.37704686873747 L 680.3927086016662 286.5047798226138 L 681.5666672033325 280.52943827039513" stroke-opacity="1" stroke-linecap="round" stroke-linejoin="round" stroke-miterlimit="10" stroke-width="2.5"/>
            <path fill="none" stroke="rgb(0,153,0)" paint-order="fill stroke markers" d=" M 187.83333279666687 565.9073080025008 L 191.1875 563.9685993589743 M 191.1875 563.9685993589743 L 196.21875 561.0605368589743 L 201.24999999999997 558.1524743589742 M 201.24999999999997 558.1524743589742 L 206.28124999999997 555.2444118589742 L 211.3125 552.3363493589743 L 216.34374999999997 549.4282868589743 L 221.37499999999994 546.5202243589742 L 226.40624999999997 543.6121618589743 L 231.43749999999997 540.7040993589743 L 236.46875 537.7960368589743 L 241.5 534.8879743589742 M 241.5 534.8879743589742 L 246.53124999999994 531.9799118589743 L 251.5625 529.0718493589743 L 256.59375 526.1637868589743 L 261.625 523.2557243589742 L 266.65625 520.3476618589743 L 271.68749999999994 517.4395993589743 L 276.71874999999994 514.5315368589743 L 281.75 511.6234743589743 L 286.78125 508.7154118589743 L 291.8125 505.8073493589743 L 296.84375 502.8992868589743 L 301.87499999999994 499.9912243589743 L 306.90625 497.0831618589743 L 311.93749999999994 494.1750993589743 L 316.96875 491.2670368589743 L 322 488.3589743589743 M 322 488.3589743589743 L 327.03124999999994 485.45091185897434 L 332.06249999999994 482.5428493589743 L 337.09375 479.63478685897434 L 342.125 476.7267243589743 L 347.15625 473.8186618589743 L 352.18749999999994 470.9105993589743 L 357.21874999999994 468.00253685897434 L 362.24999999999994 465.0944743589743 L 367.28124999999994 462.18641185897434 L 372.3125 459.2783493589743 L 377.34375 456.37028685897434 L 382.375 453.4622243589743 L 387.40624999999994 450.55416185897434 L 392.4375 447.6460993589743 L 397.46875 444.73803685897434 L 402.5 441.82997435897437 L 407.53125 438.92191185897434 L 412.5625 436.01384935897437 L 417.59374999999994 433.10578685897434 L 422.62499999999994 430.19772435897437 L 427.65624999999994 427.28966185897434 L 432.6875 424.38159935897437 L 437.71875 421.4735368589744 L 442.74999999999994 418.56547435897437 L 447.78125 415.65741185897434 L 452.8125 412.7493493589743 L 457.84375 409.8412868589744 L 462.875 406.93322435897437 L 467.90624999999994 404.02516185897434 L 472.93749999999994 401.1170993589744 L 477.96874999999994 398.2090368589744 L 482.99999999999994 395.3009743589744 L 488.03124999999994 392.3929118589744 L 493.0625 389.48484935897443 L 498.09374999999994 386.5767868589744 L 503.12499999999994 383.6687243589744 L 508.15625 380.76066185897434 L 513.1875 377.85259935897443 L 518.21875 374.9445368589744 L 523.2499999999999 372.0364743589744 L 528.2812499999999 369.1284118589744 L 533.3124999999999 366.22034935897443 L 538.3437499999999 363.3122868589744 L 543.3749999999999 360.40422435897443 L 548.4062499999999 357.49616185897446 L 553.4374999999999 354.58809935897443 L 558.4687499999999 351.68003685897446 L 563.4999999999999 348.77197435897443 L 568.5312499999999 345.86391185897446 L 573.5625 342.95584935897443 L 578.5937499999999 340.0477868589744 L 583.6249999999999 337.13972435897443 L 588.6562499999999 334.23166185897446 L 593.6874999999999 331.32359935897443 L 598.7187499999999 328.41553685897446 L 603.75 325.5074743589744 L 608.78125 322.5994118589744 L 613.8125 319.6913493589744 L 618.84375 316.7832868589744 L 623.8749999999999 313.87522435897444 L 628.9062499999999 310.96716185897446 L 633.9374999999999 308.05909935897444 L 638.9687499999999 305.1510368589744 L 643.9999999999999 302.2429743589745 M 643.9999999999999 302.2429743589745 L 649.0312499999999 299.33491185897446 L 654.0624999999999 296.42684935897444 L 659.0937499999999 293.51878685897447 L 664.1249999999999 290.6107243589745 L 669.1562499999999 287.70266185897447 L 674.1874999999999 284.79459935897444 L 679.2187499999999 281.88653685897447 L 684.2499999999999 278.97847435897444 L 689.2812499999999 276.07041185897447 L 694.3124999999999 273.16234935897444 L 699.3437499999999 270.25428685897447 L 704.3749999999999 267.3462243589745 L 709.4062499999999 264.43816185897447 L 714.4374999999999 261.53009935897444 L 719.4687499999999 258.6220368589745 L 724.4999999999999 255.71397435897444 L 729.5312499999999 252.8059118589744 L 734.5624999999999 249.8978493589745 L 739.5937499999999 246.98978685897447 L 744.6249999999999 244.08172435897444 L 749.6562499999999 241.17366185897447 L 754.6874999999999 238.2655993589745 L 759.7187499999999 235.35753685897447 L 764.7499999999999 232.4494743589745 L 769.7812499999999 229.54141185897447 L 774.8124999999999 226.6333493589745 L 779.8437499999999 223.72528685897453 L 784.8749999999999 220.8172243589745 L 789.9062499999999 217.90916185897447 L 794.9374999999999 215.0010993589745 L 799.9687499999999 212.09303685897447 L 804.9999999999999 209.1849743589745 M 804.9999999999999 209.1849743589745 L 810.03125 206.27691185897447 L 815.0625 203.36884935897444 M 815.0625 203.36884935897444 L 815.7333338699989 202.98110738211506" stroke-opacity="0.8" stroke-linecap="round" stroke-linejoin="round" stroke-miterlimit="10" stroke-width="2.5"/>
            <path fill="none" stroke="rgb(0,153,204)" paint-order="fill stroke markers" d=" M 300.48707873884246 349.4748632570966 L 301.87499999999994 348.67264476814756 M 301.87499999999994 348.67264476814756 L 306.90624999999994 345.7645822681476 L 311.93749999999994 342.85651976814756 L 316.96875 339.94845726814754 L 322 337.0403947681475 M 322 337.0403947681475 L 327.03124999999994 334.13233226814754 L 332.06249999999994 331.22426976814756 L 337.09375 328.31620726814754 L 342.125 325.40814476814757 L 347.15625 322.50008226814754 L 352.18749999999994 319.59201976814757 L 357.21874999999994 316.6839572681476 L 362.24999999999994 313.77589476814757 L 367.28124999999994 310.8678322681476 L 372.31249999999994 307.9597697681476 L 377.34375 305.05170726814754 L 382.375 302.14364476814757 L 387.40624999999994 299.2355822681476 L 392.43749999999994 296.32751976814757 L 397.46874999999994 293.4194572681476 L 402.5 290.51139476814757 L 407.53125 287.6033322681476 L 412.5625 284.6952697681476 L 417.59374999999994 281.7872072681476 L 422.62499999999994 278.8791447681476 L 427.65624999999994 275.97108226814765 L 432.68749999999994 273.0630197681476 L 437.71874999999994 270.1549572681476 L 442.74999999999994 267.2468947681476 L 447.78124999999994 264.3388322681476 L 452.81249999999994 261.4307697681476 L 457.84374999999994 258.52270726814766 L 462.875 255.61464476814763 L 467.90624999999994 252.70658226814766 L 472.93749999999994 249.79851976814763 L 477.96874999999994 246.89045726814766 L 482.99999999999994 243.98239476814769 M 482.99999999999994 243.98239476814769 L 488.03124999999994 241.07433226814766 L 493.06249999999994 238.16626976814763 M 493.06249999999994 238.16626976814763 L 493.68707981217534 237.80526263671027" stroke-opacity="0.8" stroke-linecap="round" stroke-linejoin="round" stroke-miterlimit="10" stroke-width="2.5"/>
            <path fill="none" stroke="rgb(0,153,204)" paint-order="fill stroke markers" d=" M 508.09069796560175 540.1472539824737 L 508.1562499999999 540.1093649065915 M 508.1562499999999 540.1093649065915 L 513.1874999999999 537.2013024065916 M 513.1874999999999 537.2013024065916 L 518.2187499999999 534.2932399065916 L 523.2499999999999 531.3851774065915 M 523.2499999999999 531.3851774065915 L 528.2812499999999 528.4771149065915 L 533.3124999999999 525.5690524065915 L 538.3437499999999 522.6609899065915 L 543.3749999999999 519.7529274065914 L 548.4062499999999 516.8448649065914 L 553.4374999999999 513.9368024065914 L 558.4687499999999 511.0287399065914 L 563.4999999999999 508.12067740659137 M 563.4999999999999 508.12067740659137 L 568.5312499999999 505.2126149065914 L 573.5624999999999 502.30455240659137 L 578.5937499999999 499.39648990659134 L 583.6249999999999 496.4884274065913 L 588.6562499999999 493.5803649065913 L 593.6874999999999 490.67230240659126 L 598.7187499999999 487.7642399065913 L 603.7499999999999 484.85617740659126 L 608.7812499999999 481.94811490659123 L 613.8124999999999 479.04005240659126 L 618.8437499999999 476.13198990659123 L 623.8749999999999 473.2239274065912 L 628.9062499999999 470.3158649065912 L 633.9374999999999 467.40780240659114 L 638.9687499999999 464.4997399065911 L 643.9999999999999 461.5916774065911 M 643.9999999999999 461.5916774065911 L 649.0312499999999 458.6836149065911 L 654.0624999999999 455.77555240659115 L 659.0937499999999 452.8674899065911 L 664.1249999999999 449.9594274065911 L 669.1562499999999 447.05136490659106 L 674.1874999999999 444.14330240659103 L 679.2187499999999 441.235239906591 L 684.2499999999999 438.327177406591 M 684.2499999999999 438.327177406591 L 689.28125 435.41911490659095 L 694.3125 432.5110524065909 M 694.3125 432.5110524065909 L 699.34375 429.6029899065909 M 699.34375 429.6029899065909 L 701.2906990389346 428.4776533620867" stroke-opacity="0.8" stroke-linecap="round" stroke-linejoin="round" stroke-miterlimit="10" stroke-width="2.5"/>
            <path fill="none" stroke="rgb(175,238,238)" paint-order="fill stroke markers" d=" M 321.99999999999994 595.6923076923075 L 321.99999999999994 488.35897435897436" stroke-opacity="0.6980392156862745" stroke-linejoin="round" stroke-miterlimit="10" stroke-width="2" stroke-dasharray="6,4"/>
            <path fill="none" stroke="rgb(175,238,238)" paint-order="fill stroke markers" d=" M 681.5666666666659 595.6923076923075 L 681.5666666666659 280.5294410256415" stroke-opacity="0.6980392156862745" stroke-linejoin="round" stroke-miterlimit="10" stroke-width="2" stroke-dasharray="6,4"/>
            <path fill="none" stroke="rgb(51,255,204)" paint-order="fill stroke markers" d=" M 604.6906985022682 484.3124536722802 L 604.6906985022682 595.6923076923081" stroke-opacity="0.6980392156862745" stroke-linejoin="round" stroke-miterlimit="10" stroke-width="2" stroke-dasharray="6,4"/>
            <path fill="none" stroke="rgb(51,255,204)" paint-order="fill stroke markers" d=" M 397.0870792755089 293.6400629469034 L 397.0870792755089 595.6923076923077" stroke-opacity="0.6980392156862745" stroke-linejoin="round" stroke-miterlimit="10" stroke-width="2" stroke-dasharray="6,4"/>
            <path fill="rgb(175,238,238)" stroke="none" paint-order="stroke fill markers" d=" M 326.99999999999994 488.35897435897436 C 326.99999999999994 491.1203981081283 324.7614237491539 493.35897435897436 321.99999999999994 493.35897435897436 C 319.238576250846 493.35897435897436 316.99999999999994 491.1203981081283 316.99999999999994 488.35897435897436 C 316.99999999999994 485.5975506098204 319.238576250846 483.35897435897436 321.99999999999994 483.35897435897436 C 324.7614237491539 483.35897435897436 326.99999999999994 485.5975506098204 326.99999999999994 488.35897435897436 Z" fill-opacity="1"/>
            <path fill="none" stroke="rgb(0,0,0)" paint-order="fill stroke markers" d=" M 326.99999999999994 488.35897435897436 C 326.99999999999994 491.1203981081283 324.7614237491539 493.35897435897436 321.99999999999994 493.35897435897436 C 319.238576250846 493.35897435897436 316.99999999999994 491.1203981081283 316.99999999999994 488.35897435897436 C 316.99999999999994 485.5975506098204 319.238576250846 483.35897435897436 321.99999999999994 483.35897435897436 C 324.7614237491539 483.35897435897436 326.99999999999994 485.5975506098204 326.99999999999994 488.35897435897436 Z" stroke-opacity="1" stroke-linecap="round" stroke-linejoin="round" stroke-miterlimit="10"/>
            <path fill="rgb(175,238,238)" stroke="none" paint-order="stroke fill markers" d=" M 686.5666666666659 280.5294410256415 C 686.5666666666659 283.29086477479547 684.3280904158199 285.5294410256415 681.5666666666659 285.5294410256415 C 678.8052429175119 285.5294410256415 676.5666666666659 283.29086477479547 676.5666666666659 280.5294410256415 C 676.5666666666659 277.76801727648757 678.8052429175119 275.5294410256415 681.5666666666659 275.5294410256415 C 684.3280904158199 275.5294410256415 686.5666666666659 277.76801727648757 686.5666666666659 280.5294410256415 Z" fill-opacity="1"/>
            <path fill="none" stroke="rgb(0,0,0)" paint-order="fill stroke markers" d=" M 686.5666666666659 280.5294410256415 C 686.5666666666659 283.29086477479547 684.3280904158199 285.5294410256415 681.5666666666659 285.5294410256415 C 678.8052429175119 285.5294410256415 676.5666666666659 283.29086477479547 676.5666666666659 280.5294410256415 C 676.5666666666659 277.76801727648757 678.8052429175119 275.5294410256415 681.5666666666659 275.5294410256415 C 684.3280904158199 275.5294410256415 686.5666666666659 277.76801727648757 686.5666666666659 280.5294410256415 Z" stroke-opacity="1" stroke-linecap="round" stroke-linejoin="round" stroke-miterlimit="10"/>
            <path fill="rgb(175,238,238)" stroke="none" paint-order="stroke fill markers" d=" M 326.99999999999994 595.6923076923075 C 326.99999999999994 598.4537314414615 324.7614237491539 600.6923076923075 321.99999999999994 600.6923076923075 C 319.238576250846 600.6923076923075 316.99999999999994 598.4537314414615 316.99999999999994 595.6923076923075 C 316.99999999999994 592.9308839431535 319.238576250846 590.6923076923075 321.99999999999994 590.6923076923075 C 324.7614237491539 590.6923076923075 326.99999999999994 592.9308839431535 326.99999999999994 595.6923076923075 Z" fill-opacity="1"/>
            <path fill="none" stroke="rgb(0,0,0)" paint-order="fill stroke markers" d=" M 326.99999999999994 595.6923076923075 C 326.99999999999994 598.4537314414615 324.7614237491539 600.6923076923075 321.99999999999994 600.6923076923075 C 319.238576250846 600.6923076923075 316.99999999999994 598.4537314414615 316.99999999999994 595.6923076923075 C 316.99999999999994 592.9308839431535 319.238576250846 590.6923076923075 321.99999999999994 590.6923076923075 C 324.7614237491539 590.6923076923075 326.99999999999994 592.9308839431535 326.99999999999994 595.6923076923075 Z" stroke-opacity="1" stroke-linecap="round" stroke-linejoin="round" stroke-miterlimit="10"/>
            <path fill="rgb(175,238,238)" stroke="none" paint-order="stroke fill markers" d=" M 686.5666666666659 595.6923076923075 C 686.5666666666659 598.4537314414615 684.3280904158199 600.6923076923075 681.5666666666659 600.6923076923075 C 678.8052429175119 600.6923076923075 676.5666666666659 598.4537314414615 676.5666666666659 595.6923076923075 C 676.5666666666659 592.9308839431535 678.8052429175119 590.6923076923075 681.5666666666659 590.6923076923075 C 684.3280904158199 590.6923076923075 686.5666666666659 592.9308839431535 686.5666666666659 595.6923076923075 Z" fill-opacity="1"/>
            <path fill="none" stroke="rgb(0,0,0)" paint-order="fill stroke markers" d=" M 686.5666666666659 595.6923076923075 C 686.5666666666659 598.4537314414615 684.3280904158199 600.6923076923075 681.5666666666659 600.6923076923075 C 678.8052429175119 600.6923076923075 676.5666666666659 598.4537314414615 676.5666666666659 595.6923076923075 C 676.5666666666659 592.9308839431535 678.8052429175119 590.6923076923075 681.5666666666659 590.6923076923075 C 684.3280904158199 590.6923076923075 686.5666666666659 592.9308839431535 686.5666666666659 595.6923076923075 Z" stroke-opacity="1" stroke-linecap="round" stroke-linejoin="round" stroke-miterlimit="10"/>
            <path fill="rgb(51,255,204)" stroke="none" paint-order="stroke fill markers" d=" M 609.6906985022682 595.6923076923081 C 609.6906985022682 598.4537314414621 607.4521222514222 600.6923076923081 604.6906985022682 600.6923076923081 C 601.9292747531142 600.6923076923081 599.6906985022682 598.4537314414621 599.6906985022682 595.6923076923081 C 599.6906985022682 592.9308839431541 601.9292747531142 590.6923076923081 604.6906985022682 590.6923076923081 C 607.4521222514222 590.6923076923081 609.6906985022682 592.9308839431541 609.6906985022682 595.6923076923081 Z" fill-opacity="1"/>
            <path fill="none" stroke="rgb(0,0,0)" paint-order="fill stroke markers" d=" M 609.6906985022682 595.6923076923081 C 609.6906985022682 598.4537314414621 607.4521222514222 600.6923076923081 604.6906985022682 600.6923076923081 C 601.9292747531142 600.6923076923081 599.6906985022682 598.4537314414621 599.6906985022682 595.6923076923081 C 599.6906985022682 592.9308839431541 601.9292747531142 590.6923076923081 604.6906985022682 590.6923076923081 C 607.4521222514222 590.6923076923081 609.6906985022682 592.9308839431541 609.6906985022682 595.6923076923081 Z" stroke-opacity="1" stroke-linecap="round" stroke-linejoin="round" stroke-miterlimit="10"/>
            <path fill="rgb(51,255,204)" stroke="none" paint-order="stroke fill markers" d=" M 609.6906985022682 484.3124536722802 C 609.6906985022682 487.07387742143413 607.4521222514222 489.3124536722802 604.6906985022682 489.3124536722802 C 601.9292747531142 489.3124536722802 599.6906985022682 487.07387742143413 599.6906985022682 484.3124536722802 C 599.6906985022682 481.55102992312624 601.9292747531142 479.3124536722802 604.6906985022682 479.3124536722802 C 607.4521222514222 479.3124536722802 609.6906985022682 481.55102992312624 609.6906985022682 484.3124536722802 Z" fill-opacity="1"/>
            <path fill="none" stroke="rgb(0,0,0)" paint-order="fill stroke markers" d=" M 609.6906985022682 484.3124536722802 C 609.6906985022682 487.07387742143413 607.4521222514222 489.3124536722802 604.6906985022682 489.3124536722802 C 601.9292747531142 489.3124536722802 599.6906985022682 487.07387742143413 599.6906985022682 484.3124536722802 C 599.6906985022682 481.55102992312624 601.9292747531142 479.3124536722802 604.6906985022682 479.3124536722802 C 607.4521222514222 479.3124536722802 609.6906985022682 481.55102992312624 609.6906985022682 484.3124536722802 Z" stroke-opacity="1" stroke-linecap="round" stroke-linejoin="round" stroke-miterlimit="10"/>
            <path fill="rgb(51,255,204)" stroke="none" paint-order="stroke fill markers" d=" M 402.0870792755089 595.6923076923077 C 402.0870792755089 598.4537314414617 399.8485030246629 600.6923076923077 397.0870792755089 600.6923076923077 C 394.325655526355 600.6923076923077 392.0870792755089 598.4537314414617 392.0870792755089 595.6923076923077 C 392.0870792755089 592.9308839431537 394.325655526355 590.6923076923077 397.0870792755089 590.6923076923077 C 399.8485030246629 590.6923076923077 402.0870792755089 592.9308839431537 402.0870792755089 595.6923076923077 Z" fill-opacity="1"/>
            <path fill="none" stroke="rgb(0,0,0)" paint-order="fill stroke markers" d=" M 402.0870792755089 595.6923076923077 C 402.0870792755089 598.4537314414617 399.8485030246629 600.6923076923077 397.0870792755089 600.6923076923077 C 394.325655526355 600.6923076923077 392.0870792755089 598.4537314414617 392.0870792755089 595.6923076923077 C 392.0870792755089 592.9308839431537 394.325655526355 590.6923076923077 397.0870792755089 590.6923076923077 C 399.8485030246629 590.6923076923077 402.0870792755089 592.9308839431537 402.0870792755089 595.6923076923077 Z" stroke-opacity="1" stroke-linecap="round" stroke-linejoin="round" stroke-miterlimit="10"/>
            <path fill="rgb(51,255,204)" stroke="none" paint-order="stroke fill markers" d=" M 402.0870792755089 293.6400629469034 C 402.0870792755089 296.40148669605736 399.8485030246629 298.6400629469034 397.0870792755089 298.6400629469034 C 394.325655526355 298.6400629469034 392.0870792755089 296.40148669605736 392.0870792755089 293.6400629469034 C 392.0870792755089 290.87863919774946 394.325655526355 288.6400629469034 397.0870792755089 288.6400629469034 C 399.8485030246629 288.6400629469034 402.0870792755089 290.87863919774946 402.0870792755089 293.6400629469034 Z" fill-opacity="1"/>
            <path fill="none" stroke="rgb(0,0,0)" paint-order="fill stroke markers" d=" M 402.0870792755089 293.6400629469034 C 402.0870792755089 296.40148669605736 399.8485030246629 298.6400629469034 397.0870792755089 298.6400629469034 C 394.325655526355 298.6400629469034 392.0870792755089 296.40148669605736 392.0870792755089 293.6400629469034 C 392.0870792755089 290.87863919774946 394.325655526355 288.6400629469034 397.0870792755089 288.6400629469034 C 399.8485030246629 288.6400629469034 402.0870792755089 290.87863919774946 402.0870792755089 293.6400629469034 Z" stroke-opacity="1" stroke-linecap="round" stroke-linejoin="round" stroke-miterlimit="10"/>
            <g transform="scale(28,28)">
                <g transform="translate(11.321428571428571,22.716714285714286)">
                    <path fill="rgb(175,238,238)" stroke="none" paint-order="stroke fill markers" d=" M 0.373 -0.378 Q 0.378 -0.41200000000000003 0.404 -0.42 Q 0.40900000000000003 -0.422 0.41500000000000004 -0.422 Q 0.441 -0.422 0.444 -0.395 Q 0.444 -0.389 0.437 -0.361 L 0.401 -0.221 Q 0.386 -0.158 0.379 -0.131 Q 0.366 -0.079 0.366 -0.057 Q 0.366 -0.011 0.396 -0.011 Q 0.434 -0.011 0.46 -0.091 Q 0.465 -0.108 0.47200000000000003 -0.135 Q 0.48 -0.152 0.486 -0.153 Q 0.498 -0.153 0.498 -0.14300000000000002 Q 0.498 -0.128 0.48 -0.073 Q 0.47400000000000003 -0.056 0.468 -0.044 Q 0.44 0.011 0.394 0.011 Q 0.338 0.011 0.313 -0.037 Q 0.306 -0.049 0.303 -0.064 Q 0.24 0.011 0.17300000000000001 0.011 Q 0.098 0.011 0.062 -0.057 Q 0.04 -0.097 0.04 -0.149 Q 0.04 -0.257 0.115 -0.34900000000000003 Q 0.185 -0.433 0.267 -0.441 Q 0.274 -0.442 0.281 -0.442 Q 0.342 -0.442 0.373 -0.378 M 0.308 -0.11900000000000001 L 0.308 -0.11900000000000001 L 0.358 -0.315 Q 0.361 -0.33 0.361 -0.332 Q 0.361 -0.353 0.343 -0.383 Q 0.321 -0.42 0.28200000000000003 -0.42 Q 0.23 -0.42 0.183 -0.352 Q 0.17400000000000002 -0.339 0.166 -0.324 Q 0.137 -0.266 0.117 -0.159 Q 0.111 -0.125 0.111 -0.105 Q 0.111 -0.037 0.149 -0.017 Q 0.16 -0.011 0.17500000000000002 -0.011 Q 0.231 -0.011 0.28800000000000003 -0.082 Q 0.302 -0.098 0.307 -0.115 L 0.307 -0.116 Q 0.308 -0.11800000000000001 0.308 -0.11900000000000001 Z"/>
                </g>
            </g>
            <g transform="scale(28,28)">
                <g transform="translate(24.178571428571427,22.83685714285714)">
                    <path fill="rgb(175,238,238)" stroke="none" paint-order="stroke fill markers" d=" M 0.23900000000000002 -0.683 L 0.165 -0.382 Q 0.223 -0.442 0.28200000000000003 -0.442 Q 0.357 -0.442 0.394 -0.373 Q 0.41500000000000004 -0.333 0.41500000000000004 -0.28200000000000003 Q 0.41500000000000004 -0.176 0.341 -0.084 Q 0.272 0.001 0.189 0.01 Q 0.181 0.011 0.17400000000000002 0.011 Q 0.10200000000000001 0.011 0.067 -0.056 Q 0.047 -0.094 0.047 -0.146 Q 0.047 -0.18 0.063 -0.247 L 0.145 -0.5730000000000001 Q 0.159 -0.632 0.159 -0.635 Q 0.159 -0.646 0.145 -0.649 L 0.145 -0.649 Q 0.133 -0.652 0.109 -0.652 Q 0.08700000000000001 -0.652 0.085 -0.664 Q 0.085 -0.681 0.10400000000000001 -0.684 L 0.226 -0.6940000000000001 Q 0.23900000000000002 -0.6940000000000001 0.23900000000000002 -0.683 M 0.145 -0.305 L 0.123 -0.213 Q 0.107 -0.15 0.107 -0.112 Q 0.107 -0.026000000000000002 0.159 -0.013000000000000001 Q 0.166 -0.011 0.17400000000000002 -0.011 Q 0.227 -0.011 0.273 -0.081 Q 0.28300000000000003 -0.096 0.292 -0.114 Q 0.319 -0.171 0.337 -0.268 Q 0.343 -0.303 0.343 -0.326 Q 0.343 -0.406 0.294 -0.418 L 0.293 -0.419 Q 0.28700000000000003 -0.42 0.28 -0.42 Q 0.22 -0.42 0.16 -0.34 Q 0.152 -0.33 0.145 -0.305 Z"/>
                </g>
            </g>
            <g transform="scale(28,28)">
                <g transform="translate(14,22.609571428571428)">
                    <path fill="rgb(51,255,204)" stroke="none" paint-order="stroke fill markers" d=" M 0.396 -0.38 L 0.396 -0.38 Q 0.368 -0.41600000000000004 0.31 -0.42 Q 0.245 -0.42 0.192 -0.354 Q 0.179 -0.338 0.169 -0.32 Q 0.129 -0.247 0.117 -0.148 Q 0.115 -0.132 0.115 -0.12 Q 0.115 -0.038 0.171 -0.017 Q 0.185 -0.011 0.20500000000000002 -0.011 Q 0.295 -0.011 0.367 -0.07100000000000001 Q 0.388 -0.088 0.405 -0.11 Q 0.41200000000000003 -0.12 0.418 -0.12 Q 0.427 -0.12 0.43 -0.107 Q 0.43 -0.096 0.396 -0.064 Q 0.313 0.011 0.203 0.011 Q 0.108 0.011 0.065 -0.065 Q 0.041 -0.106 0.041 -0.158 Q 0.041 -0.26 0.11900000000000001 -0.34700000000000003 Q 0.196 -0.433 0.291 -0.441 Q 0.3 -0.442 0.309 -0.442 Q 0.386 -0.442 0.41600000000000004 -0.395 Q 0.427 -0.377 0.427 -0.356 Q 0.427 -0.312 0.392 -0.296 Q 0.382 -0.292 0.371 -0.292 Q 0.341 -0.292 0.335 -0.318 Q 0.334 -0.322 0.334 -0.327 Q 0.334 -0.34900000000000003 0.352 -0.366 Q 0.366 -0.38 0.396 -0.38 Z"/>
                </g>
                <g transform="translate(14.433,22.759571428571427) scale(0.7,0.7)">
                    <path fill="rgb(51,255,204)" stroke="none" paint-order="stroke fill markers" d=" M 0.294 -0.64 L 0.294 -0.079 Q 0.294 -0.049 0.306 -0.041 Q 0.323 -0.031 0.387 -0.031 L 0.419 -0.031 L 0.419 0 Q 0.384 -0.003 0.257 -0.003 Q 0.13 -0.003 0.095 0 L 0.095 -0.031 L 0.127 -0.031 Q 0.20400000000000001 -0.031 0.215 -0.049 L 0.216 -0.05 Q 0.22 -0.058 0.22 -0.079 L 0.22 -0.597 Q 0.168 -0.5710000000000001 0.089 -0.5710000000000001 L 0.089 -0.602 Q 0.209 -0.602 0.271 -0.666 Q 0.29 -0.666 0.293 -0.659 L 0.293 -0.659 L 0.293 -0.658 Q 0.294 -0.655 0.294 -0.64 Z"/>
                </g>
            </g>
            <g transform="scale(31,31)">
                <g transform="translate(26.258064516129032,10.736064658064516)">
                    <path fill="rgb(255,255,255)" stroke="none" paint-order="stroke fill markers" d=" M 0.367 -0.4 L 0.367 -0.4 L 0.307 -0.083 Q 0.298 -0.021 0.271 0.059000000000000004 Q 0.261 0.088 0.251 0.108 Q 0.216 0.182 0.164 0.2 Q 0.151 0.20500000000000002 0.138 0.20500000000000002 Q 0.088 0.20500000000000002 0.064 0.171 Q 0.053 0.156 0.053 0.136 Q 0.053 0.096 0.08700000000000001 0.081 Q 0.097 0.076 0.108 0.076 Q 0.137 0.076 0.14400000000000002 0.101 Q 0.145 0.106 0.145 0.111 Q 0.145 0.145 0.115 0.159 Q 0.10400000000000001 0.164 0.09 0.165 Q 0.109 0.183 0.138 0.183 Q 0.182 0.183 0.20700000000000002 0.085 Q 0.212 0.062 0.219 0.025 L 0.225 -0.005 L 0.3 -0.4 L 0.234 -0.4 Q 0.209 -0.4 0.20700000000000002 -0.40800000000000003 L 0.20600000000000002 -0.40800000000000003 L 0.20600000000000002 -0.41200000000000003 Q 0.20600000000000002 -0.429 0.223 -0.431 L 0.223 -0.431 L 0.23600000000000002 -0.431 L 0.305 -0.431 Q 0.329 -0.556 0.338 -0.588 Q 0.368 -0.6880000000000001 0.444 -0.7030000000000001 Q 0.455 -0.705 0.465 -0.705 Q 0.517 -0.705 0.541 -0.671 L 0.541 -0.671 Q 0.552 -0.656 0.552 -0.636 Q 0.552 -0.596 0.518 -0.581 Q 0.508 -0.5760000000000001 0.497 -0.5760000000000001 Q 0.468 -0.5760000000000001 0.461 -0.601 Q 0.46 -0.606 0.46 -0.611 Q 0.46 -0.642 0.488 -0.657 Q 0.499 -0.664 0.514 -0.665 Q 0.495 -0.683 0.465 -0.683 Q 0.434 -0.683 0.418 -0.649 Q 0.41100000000000003 -0.635 0.394 -0.545 L 0.373 -0.431 L 0.456 -0.431 Q 0.481 -0.431 0.483 -0.42 Q 0.483 -0.402 0.467 -0.4 L 0.466 -0.4 L 0.453 -0.4 L 0.367 -0.4 Z"/>
                </g>
                <g transform="translate(26.85606451612903,10.736064658064516)">
                    <path fill="rgb(255,255,255)" stroke="none" paint-order="stroke fill markers" d=" M 0.331 0.24 L 0.331 0.24 Q 0.331 0.25 0.321 0.25 Q 0.309 0.25 0.268 0.209 Q 0.20600000000000002 0.147 0.165 0.062 Q 0.099 -0.074 0.099 -0.25 Q 0.099 -0.419 0.162 -0.555 Q 0.214 -0.666 0.294 -0.733 Q 0.315 -0.75 0.321 -0.75 Q 0.331 -0.75 0.331 -0.74 Q 0.331 -0.735 0.318 -0.723 Q 0.157 -0.559 0.157 -0.25 Q 0.157 0.058 0.314 0.218 Q 0.331 0.23500000000000001 0.331 0.24 Z"/>
                </g>
                <g transform="translate(27.24506451612903,10.736064658064516)">
                    <path fill="rgb(255,255,255)" stroke="none" paint-order="stroke fill markers" d=" M 0.334 -0.302 L 0.3 -0.165 Q 0.28300000000000003 -0.097 0.28300000000000003 -0.077 Q 0.28300000000000003 -0.025 0.32 -0.014 Q 0.328 -0.011 0.338 -0.011 Q 0.388 -0.011 0.429 -0.061 Q 0.456 -0.093 0.47100000000000003 -0.14200000000000002 Q 0.47400000000000003 -0.153 0.484 -0.153 Q 0.496 -0.153 0.496 -0.14300000000000002 Q 0.496 -0.11800000000000001 0.465 -0.07100000000000001 Q 0.41100000000000003 0.011 0.336 0.011 Q 0.268 0.011 0.23700000000000002 -0.046 Q 0.231 -0.055 0.228 -0.065 Q 0.20400000000000001 -0.017 0.162 0.002 Q 0.14300000000000002 0.011 0.123 0.011 Q 0.063 0.011 0.039 -0.024 Q 0.029 -0.037 0.029 -0.055 Q 0.029 -0.092 0.061 -0.107 Q 0.07200000000000001 -0.113 0.084 -0.113 Q 0.114 -0.113 0.12 -0.088 Q 0.121 -0.083 0.121 -0.078 Q 0.121 -0.044 0.08700000000000001 -0.028 Q 0.081 -0.025 0.074 -0.024 Q 0.095 -0.011 0.124 -0.011 Q 0.177 -0.011 0.20800000000000002 -0.082 Q 0.214 -0.097 0.219 -0.115 Q 0.273 -0.319 0.273 -0.353 Q 0.267 -0.41500000000000004 0.219 -0.42 Q 0.167 -0.42 0.124 -0.367 L 0.124 -0.366 Q 0.124 -0.365 0.123 -0.365 Q 0.108 -0.34500000000000003 0.096 -0.319 Q 0.091 -0.307 0.08700000000000001 -0.295 L 0.085 -0.289 Q 0.083 -0.278 0.07200000000000001 -0.278 Q 0.06 -0.278 0.06 -0.28800000000000003 Q 0.06 -0.313 0.092 -0.36 Q 0.146 -0.442 0.221 -0.442 Q 0.298 -0.442 0.329 -0.366 Q 0.361 -0.428 0.41400000000000003 -0.44 Q 0.424 -0.442 0.434 -0.442 Q 0.493 -0.442 0.517 -0.40900000000000003 Q 0.527 -0.395 0.527 -0.376 Q 0.527 -0.335 0.49 -0.321 Q 0.481 -0.318 0.47300000000000003 -0.318 Q 0.442 -0.318 0.436 -0.34500000000000003 Q 0.435 -0.34900000000000003 0.435 -0.353 Q 0.435 -0.383 0.464 -0.4 Q 0.47300000000000003 -0.405 0.483 -0.40700000000000003 Q 0.462 -0.42 0.433 -0.42 Q 0.365 -0.42 0.337 -0.314 Q 0.335 -0.308 0.334 -0.302 Z"/>
                </g>
                <g transform="translate(27.81706451612903,10.736064658064516)">
                    <path fill="rgb(255,255,255)" stroke="none" paint-order="stroke fill markers" d=" M 0.289 -0.25 L 0.289 -0.25 Q 0.289 -0.081 0.226 0.055 Q 0.17400000000000002 0.166 0.094 0.233 Q 0.073 0.25 0.067 0.25 Q 0.057 0.25 0.057 0.24 Q 0.057 0.23500000000000001 0.07 0.223 Q 0.231 0.059000000000000004 0.231 -0.25 Q 0.231 -0.555 0.081 -0.712 L 0.076 -0.717 Q 0.057 -0.735 0.057 -0.74 Q 0.057 -0.75 0.067 -0.75 Q 0.079 -0.75 0.12 -0.709 Q 0.182 -0.647 0.223 -0.562 Q 0.289 -0.426 0.289 -0.25 Z"/>
                </g>
                <g transform="translate(28.483842293906807,10.736064658064516)">
                    <path fill="rgb(255,255,255)" stroke="none" paint-order="stroke fill markers" d=" M 0.687 -0.327 L 0.09 -0.327 Q 0.058 -0.327 0.056 -0.34700000000000003 Q 0.056 -0.367 0.089 -0.367 L 0.6880000000000001 -0.367 Q 0.72 -0.367 0.721 -0.34700000000000003 Q 0.721 -0.327 0.687 -0.327 M 0.6880000000000001 -0.133 L 0.089 -0.133 Q 0.057 -0.133 0.056 -0.153 Q 0.056 -0.17300000000000001 0.09 -0.17300000000000001 L 0.687 -0.17300000000000001 Q 0.719 -0.17300000000000001 0.721 -0.153 Q 0.721 -0.133 0.6880000000000001 -0.133 Z"/>
                </g>
                <g transform="translate(29.578185130132326,10.059556658064515)">
                    <path fill="rgb(255,255,255)" stroke="none" paint-order="stroke fill markers" d=" M 0.331 0.24 L 0.331 0.24 Q 0.331 0.25 0.321 0.25 Q 0.309 0.25 0.268 0.209 Q 0.20600000000000002 0.147 0.165 0.062 Q 0.099 -0.074 0.099 -0.25 Q 0.099 -0.419 0.162 -0.555 Q 0.214 -0.666 0.294 -0.733 Q 0.315 -0.75 0.321 -0.75 Q 0.331 -0.75 0.331 -0.74 Q 0.331 -0.735 0.318 -0.723 Q 0.157 -0.559 0.157 -0.25 Q 0.157 0.058 0.314 0.218 Q 0.331 0.23500000000000001 0.331 0.24 Z"/>
                </g>
                <g transform="translate(29.967185130132325,10.059556658064515)">
                    <path fill="rgb(255,255,255)" stroke="none" paint-order="stroke fill markers" d=" M 0.334 -0.302 L 0.3 -0.165 Q 0.28300000000000003 -0.097 0.28300000000000003 -0.077 Q 0.28300000000000003 -0.025 0.32 -0.014 Q 0.328 -0.011 0.338 -0.011 Q 0.388 -0.011 0.429 -0.061 Q 0.456 -0.093 0.47100000000000003 -0.14200000000000002 Q 0.47400000000000003 -0.153 0.484 -0.153 Q 0.496 -0.153 0.496 -0.14300000000000002 Q 0.496 -0.11800000000000001 0.465 -0.07100000000000001 Q 0.41100000000000003 0.011 0.336 0.011 Q 0.268 0.011 0.23700000000000002 -0.046 Q 0.231 -0.055 0.228 -0.065 Q 0.20400000000000001 -0.017 0.162 0.002 Q 0.14300000000000002 0.011 0.123 0.011 Q 0.063 0.011 0.039 -0.024 Q 0.029 -0.037 0.029 -0.055 Q 0.029 -0.092 0.061 -0.107 Q 0.07200000000000001 -0.113 0.084 -0.113 Q 0.114 -0.113 0.12 -0.088 Q 0.121 -0.083 0.121 -0.078 Q 0.121 -0.044 0.08700000000000001 -0.028 Q 0.081 -0.025 0.074 -0.024 Q 0.095 -0.011 0.124 -0.011 Q 0.177 -0.011 0.20800000000000002 -0.082 Q 0.214 -0.097 0.219 -0.115 Q 0.273 -0.319 0.273 -0.353 Q 0.267 -0.41500000000000004 0.219 -0.42 Q 0.167 -0.42 0.124 -0.367 L 0.124 -0.366 Q 0.124 -0.365 0.123 -0.365 Q 0.108 -0.34500000000000003 0.096 -0.319 Q 0.091 -0.307 0.08700000000000001 -0.295 L 0.085 -0.289 Q 0.083 -0.278 0.07200000000000001 -0.278 Q 0.06 -0.278 0.06 -0.28800000000000003 Q 0.06 -0.313 0.092 -0.36 Q 0.146 -0.442 0.221 -0.442 Q 0.298 -0.442 0.329 -0.366 Q 0.361 -0.428 0.41400000000000003 -0.44 Q 0.424 -0.442 0.434 -0.442 Q 0.493 -0.442 0.517 -0.40900000000000003 Q 0.527 -0.395 0.527 -0.376 Q 0.527 -0.335 0.49 -0.321 Q 0.481 -0.318 0.47300000000000003 -0.318 Q 0.442 -0.318 0.436 -0.34500000000000003 Q 0.435 -0.34900000000000003 0.435 -0.353 Q 0.435 -0.383 0.464 -0.4 Q 0.47300000000000003 -0.405 0.483 -0.40700000000000003 Q 0.462 -0.42 0.433 -0.42 Q 0.365 -0.42 0.337 -0.314 Q 0.335 -0.308 0.334 -0.302 Z"/>
                </g>
                <g transform="translate(30.761407352354546,10.059556658064515)">
                    <path fill="rgb(255,255,255)" stroke="none" paint-order="stroke fill markers" d=" M 0.661 -0.23 L 0.116 -0.23 Q 0.084 -0.23 0.083 -0.25 Q 0.083 -0.27 0.116 -0.27 L 0.661 -0.27 Q 0.6930000000000001 -0.27 0.6940000000000001 -0.25 Q 0.6940000000000001 -0.23 0.661 -0.23 Z"/>
                </g>
                <g transform="translate(31.761629574576766,10.059556658064515)">
                    <path fill="rgb(255,255,255)" stroke="none" paint-order="stroke fill markers" d=" M 0.367 -0.318 Q 0.327 -0.218 0.242 -0.218 Q 0.149 -0.218 0.09 -0.294 L 0.09 -0.295 Q 0.042 -0.357 0.042 -0.441 Q 0.042 -0.525 0.091 -0.586 L 0.106 -0.603 Q 0.166 -0.666 0.253 -0.666 Q 0.353 -0.666 0.40800000000000003 -0.5690000000000001 Q 0.457 -0.482 0.457 -0.329 Q 0.457 -0.158 0.365 -0.055 Q 0.296 0.022 0.20600000000000002 0.022 Q 0.108 0.022 0.077 -0.039 Q 0.067 -0.06 0.067 -0.08600000000000001 Q 0.067 -0.126 0.10400000000000001 -0.133 Q 0.109 -0.134 0.113 -0.134 Q 0.145 -0.134 0.156 -0.106 Q 0.159 -0.098 0.159 -0.088 Q 0.159 -0.048 0.11900000000000001 -0.043000000000000003 Q 0.113 -0.042 0.107 -0.042 Q 0.136 -0.006 0.20500000000000002 -0.006 Q 0.276 -0.006 0.321 -0.077 Q 0.367 -0.15 0.367 -0.28600000000000003 L 0.367 -0.318 M 0.243 -0.241 Q 0.321 -0.241 0.352 -0.333 Q 0.365 -0.374 0.365 -0.421 Q 0.365 -0.519 0.34900000000000003 -0.562 Q 0.323 -0.632 0.266 -0.64 Q 0.259 -0.641 0.253 -0.641 Q 0.187 -0.641 0.153 -0.578 Q 0.132 -0.541 0.132 -0.452 L 0.132 -0.44 Q 0.132 -0.341 0.15 -0.304 Q 0.181 -0.241 0.243 -0.241 Z"/>
                </g>
                <g transform="translate(32.261629574576766,10.059556658064515)">
                    <path fill="rgb(255,255,255)" stroke="none" paint-order="stroke fill markers" d=" M 0.289 -0.25 L 0.289 -0.25 Q 0.289 -0.081 0.226 0.055 Q 0.17400000000000002 0.166 0.094 0.233 Q 0.073 0.25 0.067 0.25 Q 0.057 0.25 0.057 0.24 Q 0.057 0.23500000000000001 0.07 0.223 Q 0.231 0.059000000000000004 0.231 -0.25 Q 0.231 -0.555 0.081 -0.712 L 0.076 -0.717 Q 0.057 -0.735 0.057 -0.74 Q 0.057 -0.75 0.067 -0.75 Q 0.079 -0.75 0.12 -0.709 Q 0.182 -0.647 0.223 -0.562 Q 0.289 -0.426 0.289 -0.25 Z"/>
                </g>
                <g transform="translate(32.65062957457677,9.579832258064515) scale(0.7,0.7)">
                    <path fill="rgb(255,255,255)" stroke="none" paint-order="stroke fill markers" d=" M 0.29 -0.352 L 0.29 -0.352 Q 0.39 -0.332 0.434 -0.254 Q 0.457 -0.215 0.457 -0.171 Q 0.457 -0.08600000000000001 0.387 -0.028 Q 0.326 0.022 0.244 0.022 Q 0.145 0.022 0.085 -0.037 Q 0.042 -0.079 0.042 -0.135 Q 0.042 -0.182 0.084 -0.191 Q 0.091 -0.193 0.098 -0.193 Q 0.136 -0.193 0.149 -0.161 Q 0.153 -0.148 0.154 -0.137 Q 0.154 -0.097 0.11800000000000001 -0.085 Q 0.10400000000000001 -0.08 0.088 -0.082 Q 0.125 -0.02 0.216 -0.008 Q 0.229 -0.006 0.241 -0.006 Q 0.305 -0.006 0.335 -0.069 Q 0.354 -0.109 0.354 -0.171 Q 0.354 -0.304 0.274 -0.331 Q 0.256 -0.337 0.23500000000000001 -0.337 L 0.191 -0.337 Q 0.169 -0.337 0.167 -0.34800000000000003 Q 0.167 -0.358 0.182 -0.36 Q 0.197 -0.36 0.221 -0.363 Q 0.272 -0.365 0.301 -0.402 L 0.301 -0.403 L 0.302 -0.404 L 0.303 -0.405 L 0.304 -0.405 L 0.31 -0.41500000000000004 Q 0.338 -0.462 0.338 -0.529 Q 0.338 -0.622 0.266 -0.638 Q 0.254 -0.641 0.242 -0.641 Q 0.17200000000000001 -0.641 0.128 -0.601 Q 0.117 -0.591 0.109 -0.579 Q 0.171 -0.579 0.171 -0.529 Q 0.171 -0.493 0.14 -0.481 Q 0.131 -0.47800000000000004 0.12 -0.47800000000000004 Q 0.081 -0.47800000000000004 0.07100000000000001 -0.513 L 0.07100000000000001 -0.513 L 0.07100000000000001 -0.514 Q 0.069 -0.522 0.069 -0.53 Q 0.069 -0.597 0.135 -0.637 Q 0.183 -0.666 0.246 -0.666 Q 0.337 -0.666 0.393 -0.612 L 0.395 -0.61 Q 0.43 -0.5740000000000001 0.43 -0.528 Q 0.43 -0.445 0.359 -0.389 Q 0.328 -0.365 0.29 -0.352 Z"/>
                </g>
                <rect fill="rgb(255,255,255)" stroke="none" x="29.578185130132326" y="10.466065158064515" width="3.43851321879767" height="0.039999"/>
                <g transform="translate(31.04744173953116,11.422015658064515)">
                    <path fill="rgb(255,255,255)" stroke="none" paint-order="stroke fill markers" d=" M 0.449 -0.201 L 0.449 -0.201 Q 0.449 -0.098 0.372 -0.031 Q 0.31 0.022 0.231 0.022 Q 0.139 0.022 0.085 -0.055 Q 0.05 -0.10400000000000001 0.05 -0.161 Q 0.05 -0.20700000000000002 0.091 -0.213 Q 0.095 -0.214 0.099 -0.214 Q 0.136 -0.214 0.147 -0.181 Q 0.149 -0.17300000000000001 0.149 -0.165 Q 0.149 -0.133 0.121 -0.121 Q 0.111 -0.116 0.099 -0.116 Q 0.088 -0.116 0.082 -0.11800000000000001 Q 0.1 -0.055 0.159 -0.024 Q 0.192 -0.006 0.229 -0.006 Q 0.296 -0.006 0.336 -0.07100000000000001 Q 0.36 -0.113 0.36 -0.20800000000000002 Q 0.36 -0.292 0.342 -0.334 Q 0.314 -0.398 0.257 -0.398 Q 0.176 -0.398 0.128 -0.328 Q 0.122 -0.319 0.115 -0.319 Q 0.10200000000000001 -0.319 0.101 -0.333 L 0.101 -0.34500000000000003 L 0.101 -0.641 Q 0.101 -0.664 0.111 -0.665 Q 0.115 -0.665 0.123 -0.662 Q 0.186 -0.634 0.256 -0.634 Q 0.328 -0.634 0.392 -0.663 Q 0.397 -0.666 0.4 -0.666 Q 0.41000000000000003 -0.666 0.41000000000000003 -0.655 Q 0.41000000000000003 -0.642 0.378 -0.613 Q 0.31 -0.551 0.217 -0.551 Q 0.17500000000000002 -0.551 0.132 -0.5640000000000001 L 0.132 -0.369 Q 0.184 -0.42 0.259 -0.42 Q 0.34700000000000003 -0.42 0.404 -0.343 Q 0.449 -0.28200000000000003 0.449 -0.201 Z"/>
                </g>
                <g transform="translate(33.27748562959996,10.736064658064516)">
                    <path fill="rgb(255,255,255)" stroke="none" paint-order="stroke fill markers" d=" M 0.40900000000000003 -0.23 L 0.40900000000000003 0.05 Q 0.40900000000000003 0.082 0.389 0.083 Q 0.369 0.083 0.369 0.05 L 0.369 -0.23 L 0.089 -0.23 Q 0.057 -0.23 0.056 -0.25 Q 0.056 -0.27 0.089 -0.27 L 0.369 -0.27 L 0.369 -0.55 Q 0.369 -0.582 0.389 -0.583 Q 0.40900000000000003 -0.583 0.40900000000000003 -0.55 L 0.40900000000000003 -0.27 L 0.6880000000000001 -0.27 Q 0.72 -0.27 0.721 -0.25 Q 0.721 -0.23 0.6880000000000001 -0.23 L 0.40900000000000003 -0.23 Z"/>
                </g>
                <g transform="translate(34.27770785182218,10.736064658064516)">
                    <path fill="rgb(255,255,255)" stroke="none" paint-order="stroke fill markers" d=" M 0.331 0.24 L 0.331 0.24 Q 0.331 0.25 0.321 0.25 Q 0.309 0.25 0.268 0.209 Q 0.20600000000000002 0.147 0.165 0.062 Q 0.099 -0.074 0.099 -0.25 Q 0.099 -0.419 0.162 -0.555 Q 0.214 -0.666 0.294 -0.733 Q 0.315 -0.75 0.321 -0.75 Q 0.331 -0.75 0.331 -0.74 Q 0.331 -0.735 0.318 -0.723 Q 0.157 -0.559 0.157 -0.25 Q 0.157 0.058 0.314 0.218 Q 0.331 0.23500000000000001 0.331 0.24 Z"/>
                </g>
                <g transform="translate(34.66670785182218,10.736064658064516)">
                    <path fill="rgb(255,255,255)" stroke="none" paint-order="stroke fill markers" d=" M 0.334 -0.302 L 0.3 -0.165 Q 0.28300000000000003 -0.097 0.28300000000000003 -0.077 Q 0.28300000000000003 -0.025 0.32 -0.014 Q 0.328 -0.011 0.338 -0.011 Q 0.388 -0.011 0.429 -0.061 Q 0.456 -0.093 0.47100000000000003 -0.14200000000000002 Q 0.47400000000000003 -0.153 0.484 -0.153 Q 0.496 -0.153 0.496 -0.14300000000000002 Q 0.496 -0.11800000000000001 0.465 -0.07100000000000001 Q 0.41100000000000003 0.011 0.336 0.011 Q 0.268 0.011 0.23700000000000002 -0.046 Q 0.231 -0.055 0.228 -0.065 Q 0.20400000000000001 -0.017 0.162 0.002 Q 0.14300000000000002 0.011 0.123 0.011 Q 0.063 0.011 0.039 -0.024 Q 0.029 -0.037 0.029 -0.055 Q 0.029 -0.092 0.061 -0.107 Q 0.07200000000000001 -0.113 0.084 -0.113 Q 0.114 -0.113 0.12 -0.088 Q 0.121 -0.083 0.121 -0.078 Q 0.121 -0.044 0.08700000000000001 -0.028 Q 0.081 -0.025 0.074 -0.024 Q 0.095 -0.011 0.124 -0.011 Q 0.177 -0.011 0.20800000000000002 -0.082 Q 0.214 -0.097 0.219 -0.115 Q 0.273 -0.319 0.273 -0.353 Q 0.267 -0.41500000000000004 0.219 -0.42 Q 0.167 -0.42 0.124 -0.367 L 0.124 -0.366 Q 0.124 -0.365 0.123 -0.365 Q 0.108 -0.34500000000000003 0.096 -0.319 Q 0.091 -0.307 0.08700000000000001 -0.295 L 0.085 -0.289 Q 0.083 -0.278 0.07200000000000001 -0.278 Q 0.06 -0.278 0.06 -0.28800000000000003 Q 0.06 -0.313 0.092 -0.36 Q 0.146 -0.442 0.221 -0.442 Q 0.298 -0.442 0.329 -0.366 Q 0.361 -0.428 0.41400000000000003 -0.44 Q 0.424 -0.442 0.434 -0.442 Q 0.493 -0.442 0.517 -0.40900000000000003 Q 0.527 -0.395 0.527 -0.376 Q 0.527 -0.335 0.49 -0.321 Q 0.481 -0.318 0.47300000000000003 -0.318 Q 0.442 -0.318 0.436 -0.34500000000000003 Q 0.435 -0.34900000000000003 0.435 -0.353 Q 0.435 -0.383 0.464 -0.4 Q 0.47300000000000003 -0.405 0.483 -0.40700000000000003 Q 0.462 -0.42 0.433 -0.42 Q 0.365 -0.42 0.337 -0.314 Q 0.335 -0.308 0.334 -0.302 Z"/>
                </g>
                <g transform="translate(35.460930074044406,10.736064658064516)">
                    <path fill="rgb(255,255,255)" stroke="none" paint-order="stroke fill markers" d=" M 0.661 -0.23 L 0.116 -0.23 Q 0.084 -0.23 0.083 -0.25 Q 0.083 -0.27 0.116 -0.27 L 0.661 -0.27 Q 0.6930000000000001 -0.27 0.6940000000000001 -0.25 Q 0.6940000000000001 -0.23 0.661 -0.23 Z"/>
                </g>
                <g transform="translate(36.461152296266626,10.736064658064516)">
                    <path fill="rgb(255,255,255)" stroke="none" paint-order="stroke fill markers" d=" M 0.367 -0.318 Q 0.327 -0.218 0.242 -0.218 Q 0.149 -0.218 0.09 -0.294 L 0.09 -0.295 Q 0.042 -0.357 0.042 -0.441 Q 0.042 -0.525 0.091 -0.586 L 0.106 -0.603 Q 0.166 -0.666 0.253 -0.666 Q 0.353 -0.666 0.40800000000000003 -0.5690000000000001 Q 0.457 -0.482 0.457 -0.329 Q 0.457 -0.158 0.365 -0.055 Q 0.296 0.022 0.20600000000000002 0.022 Q 0.108 0.022 0.077 -0.039 Q 0.067 -0.06 0.067 -0.08600000000000001 Q 0.067 -0.126 0.10400000000000001 -0.133 Q 0.109 -0.134 0.113 -0.134 Q 0.145 -0.134 0.156 -0.106 Q 0.159 -0.098 0.159 -0.088 Q 0.159 -0.048 0.11900000000000001 -0.043000000000000003 Q 0.113 -0.042 0.107 -0.042 Q 0.136 -0.006 0.20500000000000002 -0.006 Q 0.276 -0.006 0.321 -0.077 Q 0.367 -0.15 0.367 -0.28600000000000003 L 0.367 -0.318 M 0.243 -0.241 Q 0.321 -0.241 0.352 -0.333 Q 0.365 -0.374 0.365 -0.421 Q 0.365 -0.519 0.34900000000000003 -0.562 Q 0.323 -0.632 0.266 -0.64 Q 0.259 -0.641 0.253 -0.641 Q 0.187 -0.641 0.153 -0.578 Q 0.132 -0.541 0.132 -0.452 L 0.132 -0.44 Q 0.132 -0.341 0.15 -0.304 Q 0.181 -0.241 0.243 -0.241 Z"/>
                </g>
                <g transform="translate(36.961152296266626,10.736064658064516)">
                    <path fill="rgb(255,255,255)" stroke="none" paint-order="stroke fill markers" d=" M 0.289 -0.25 L 0.289 -0.25 Q 0.289 -0.081 0.226 0.055 Q 0.17400000000000002 0.166 0.094 0.233 Q 0.073 0.25 0.067 0.25 Q 0.057 0.25 0.057 0.24 Q 0.057 0.23500000000000001 0.07 0.223 Q 0.231 0.059000000000000004 0.231 -0.25 Q 0.231 -0.555 0.081 -0.712 L 0.076 -0.717 Q 0.057 -0.735 0.057 -0.74 Q 0.057 -0.75 0.067 -0.75 Q 0.079 -0.75 0.12 -0.709 Q 0.182 -0.647 0.223 -0.562 Q 0.289 -0.426 0.289 -0.25 Z"/>
                </g>
                <g transform="translate(37.35015229626663,10.256340258064515) scale(0.7,0.7)">
                    <path fill="rgb(255,255,255)" stroke="none" paint-order="stroke fill markers" d=" M 0.449 -0.17400000000000002 L 0.449 -0.17400000000000002 L 0.421 0 L 0.05 0 Q 0.05 -0.025 0.056 -0.032 L 0.061 -0.037 L 0.253 -0.251 Q 0.358 -0.369 0.358 -0.47200000000000003 Q 0.358 -0.561 0.304 -0.607 L 0.303 -0.608 L 0.302 -0.608 Q 0.27 -0.635 0.224 -0.635 Q 0.152 -0.635 0.109 -0.5730000000000001 Q 0.097 -0.555 0.089 -0.533 Q 0.092 -0.534 0.10200000000000001 -0.534 Q 0.14200000000000002 -0.534 0.153 -0.498 L 0.153 -0.497 Q 0.155 -0.49 0.155 -0.482 Q 0.155 -0.442 0.117 -0.431 Q 0.109 -0.429 0.10300000000000001 -0.429 Q 0.066 -0.429 0.054 -0.46 Q 0.05 -0.47100000000000003 0.05 -0.485 Q 0.05 -0.562 0.109 -0.617 Q 0.162 -0.666 0.23700000000000002 -0.666 Q 0.34700000000000003 -0.666 0.40800000000000003 -0.592 Q 0.443 -0.549 0.448 -0.49 Q 0.449 -0.481 0.449 -0.47200000000000003 Q 0.449 -0.399 0.394 -0.333 Q 0.365 -0.299 0.304 -0.243 L 0.243 -0.189 L 0.233 -0.18 L 0.127 -0.077 L 0.307 -0.077 Q 0.395 -0.077 0.402 -0.085 Q 0.41200000000000003 -0.099 0.424 -0.17400000000000002 L 0.449 -0.17400000000000002 Z"/>
                </g>
                <g transform="translate(37.88288773728652,10.736064658064516)">
                    <path fill="rgb(255,255,255)" stroke="none" paint-order="stroke fill markers" d=" M 0.40900000000000003 -0.23 L 0.40900000000000003 0.05 Q 0.40900000000000003 0.082 0.389 0.083 Q 0.369 0.083 0.369 0.05 L 0.369 -0.23 L 0.089 -0.23 Q 0.057 -0.23 0.056 -0.25 Q 0.056 -0.27 0.089 -0.27 L 0.369 -0.27 L 0.369 -0.55 Q 0.369 -0.582 0.389 -0.583 Q 0.40900000000000003 -0.583 0.40900000000000003 -0.55 L 0.40900000000000003 -0.27 L 0.6880000000000001 -0.27 Q 0.72 -0.27 0.721 -0.25 Q 0.721 -0.23 0.6880000000000001 -0.23 L 0.40900000000000003 -0.23 Z"/>
                </g>
                <g transform="translate(38.88310995950874,10.736064658064516)">
                    <path fill="rgb(255,255,255)" stroke="none" paint-order="stroke fill markers" d=" M 0.449 -0.17400000000000002 L 0.449 -0.17400000000000002 L 0.421 0 L 0.05 0 Q 0.05 -0.025 0.056 -0.032 L 0.061 -0.037 L 0.253 -0.251 Q 0.358 -0.369 0.358 -0.47200000000000003 Q 0.358 -0.561 0.304 -0.607 L 0.303 -0.608 L 0.302 -0.608 Q 0.27 -0.635 0.224 -0.635 Q 0.152 -0.635 0.109 -0.5730000000000001 Q 0.097 -0.555 0.089 -0.533 Q 0.092 -0.534 0.10200000000000001 -0.534 Q 0.14200000000000002 -0.534 0.153 -0.498 L 0.153 -0.497 Q 0.155 -0.49 0.155 -0.482 Q 0.155 -0.442 0.117 -0.431 Q 0.109 -0.429 0.10300000000000001 -0.429 Q 0.066 -0.429 0.054 -0.46 Q 0.05 -0.47100000000000003 0.05 -0.485 Q 0.05 -0.562 0.109 -0.617 Q 0.162 -0.666 0.23700000000000002 -0.666 Q 0.34700000000000003 -0.666 0.40800000000000003 -0.592 Q 0.443 -0.549 0.448 -0.49 Q 0.449 -0.481 0.449 -0.47200000000000003 Q 0.449 -0.399 0.394 -0.333 Q 0.365 -0.299 0.304 -0.243 L 0.243 -0.189 L 0.233 -0.18 L 0.127 -0.077 L 0.307 -0.077 Q 0.395 -0.077 0.402 -0.085 Q 0.41200000000000003 -0.099 0.424 -0.17400000000000002 L 0.449 -0.17400000000000002 Z"/>
                </g>
            </g>
            <g transform="scale(28,28)">
                <g transform="translate(21.428571428571427,22.609571428571428)">
                    <path fill="rgb(51,255,204)" stroke="none" paint-order="stroke fill markers" d=" M 0.396 -0.38 L 0.396 -0.38 Q 0.368 -0.41600000000000004 0.31 -0.42 Q 0.245 -0.42 0.192 -0.354 Q 0.179 -0.338 0.169 -0.32 Q 0.129 -0.247 0.117 -0.148 Q 0.115 -0.132 0.115 -0.12 Q 0.115 -0.038 0.171 -0.017 Q 0.185 -0.011 0.20500000000000002 -0.011 Q 0.295 -0.011 0.367 -0.07100000000000001 Q 0.388 -0.088 0.405 -0.11 Q 0.41200000000000003 -0.12 0.418 -0.12 Q 0.427 -0.12 0.43 -0.107 Q 0.43 -0.096 0.396 -0.064 Q 0.313 0.011 0.203 0.011 Q 0.108 0.011 0.065 -0.065 Q 0.041 -0.106 0.041 -0.158 Q 0.041 -0.26 0.11900000000000001 -0.34700000000000003 Q 0.196 -0.433 0.291 -0.441 Q 0.3 -0.442 0.309 -0.442 Q 0.386 -0.442 0.41600000000000004 -0.395 Q 0.427 -0.377 0.427 -0.356 Q 0.427 -0.312 0.392 -0.296 Q 0.382 -0.292 0.371 -0.292 Q 0.341 -0.292 0.335 -0.318 Q 0.334 -0.322 0.334 -0.327 Q 0.334 -0.34900000000000003 0.352 -0.366 Q 0.366 -0.38 0.396 -0.38 Z"/>
                </g>
                <g transform="translate(21.861571428571427,22.759571428571427) scale(0.7,0.7)">
                    <path fill="rgb(51,255,204)" stroke="none" paint-order="stroke fill markers" d=" M 0.449 -0.17400000000000002 L 0.449 -0.17400000000000002 L 0.421 0 L 0.05 0 Q 0.05 -0.025 0.056 -0.032 L 0.061 -0.037 L 0.253 -0.251 Q 0.358 -0.369 0.358 -0.47200000000000003 Q 0.358 -0.561 0.304 -0.607 L 0.303 -0.608 L 0.302 -0.608 Q 0.27 -0.635 0.224 -0.635 Q 0.152 -0.635 0.109 -0.5730000000000001 Q 0.097 -0.555 0.089 -0.533 Q 0.092 -0.534 0.10200000000000001 -0.534 Q 0.14200000000000002 -0.534 0.153 -0.498 L 0.153 -0.497 Q 0.155 -0.49 0.155 -0.482 Q 0.155 -0.442 0.117 -0.431 Q 0.109 -0.429 0.10300000000000001 -0.429 Q 0.066 -0.429 0.054 -0.46 Q 0.05 -0.47100000000000003 0.05 -0.485 Q 0.05 -0.562 0.109 -0.617 Q 0.162 -0.666 0.23700000000000002 -0.666 Q 0.34700000000000003 -0.666 0.40800000000000003 -0.592 Q 0.443 -0.549 0.448 -0.49 Q 0.449 -0.481 0.449 -0.47200000000000003 Q 0.449 -0.399 0.394 -0.333 Q 0.365 -0.299 0.304 -0.243 L 0.243 -0.189 L 0.233 -0.18 L 0.127 -0.077 L 0.307 -0.077 Q 0.395 -0.077 0.402 -0.085 Q 0.41200000000000003 -0.099 0.424 -0.17400000000000002 L 0.449 -0.17400000000000002 Z"/>
                </g>
            </g>
        </g>
    </g>
</svg>
