<svg version="1.1" xmlns="http://www.w3.org/2000/svg" xmlns:xlink="http://www.w3.org/1999/xlink" width="1288" height="704"><defs><clipPath id="inwMDGqlnMPC"><path fill="none" stroke="none" d=" M 0 0 L 1288 0 L 1288 704 L 0 704 L 0 0 Z"/></clipPath></defs><g transform="scale(1,1)" clip-path="url(#inwMDGqlnMPC)"><g><rect fill="rgb(0,0,0)" stroke="none" x="0" y="0" width="1288" height="704" fill-opacity="1"/><path fill="none" stroke="rgb(32,32,32)" paint-order="fill stroke markers" d=" M 0.5 0.5 L 0.5 704.5 M 0.5 0.5 L 0.5 704.5 M 214.5 0.5 L 214.5 704.5 M 429.5 0.5 L 429.5 704.5 M 643.5 0.5 L 643.5 704.5 M 858.5 0.5 L 858.5 704.5 M 1073.5 0.5 L 1073.5 704.5 M 1287.5 0.5 L 1287.5 704.5" stroke-opacity="1" stroke-linecap="round" stroke-linejoin="round" stroke-miterlimit="10"/><path fill="none" stroke="rgb(32,32,32)" paint-order="fill stroke markers" d="" stroke-opacity="0.23529411764705882" stroke-linecap="round" stroke-linejoin="round" stroke-miterlimit="10"/><path fill="none" stroke="rgb(32,32,32)" paint-order="fill stroke markers" d=" M 0.5 137.5 L 1288.5 137.5 M 0.5 137.5 L 1288.5 137.5 M 0.5 351.5 L 1288.5 351.5 M 0.5 566.5 L 1288.5 566.5" stroke-opacity="1" stroke-linecap="round" stroke-linejoin="round" stroke-miterlimit="10"/><path fill="none" stroke="rgb(32,32,32)" paint-order="fill stroke markers" d="" stroke-opacity="0.23529411764705882" stroke-linecap="round" stroke-linejoin="round" stroke-miterlimit="10"/><path fill="none" stroke="rgb(255,255,255)" paint-order="fill stroke markers" d=" M 536.6666666666655 351.99999999999994 C 536.6666666666655 470.55712629700975 440.55712629700946 566.6666666666658 321.99999999999966 566.6666666666658 C 203.4428737029898 566.6666666666658 107.33333333333383 470.55712629700975 107.33333333333383 351.99999999999994 C 107.33333333333383 233.44287370299008 203.4428737029898 137.3333333333341 321.99999999999966 137.3333333333341 C 440.55712629700946 137.3333333333341 536.6666666666655 233.44287370299008 536.6666666666655 351.99999999999994 Z" stroke-opacity="0.6980392156862745" stroke-linecap="round" stroke-linejoin="round" stroke-miterlimit="10" stroke-width="2.5"/><path fill="none" stroke="rgb(255,255,255)" paint-order="fill stroke markers" d=" M 1180.6666666666629 351.99999999999994 C 1180.6666666666629 470.55712629700975 1084.557126297007 566.6666666666658 965.9999999999972 566.6666666666658 C 847.4428737029873 566.6666666666658 751.3333333333313 470.55712629700975 751.3333333333313 351.99999999999994 C 751.3333333333313 233.44287370299008 847.4428737029873 137.3333333333341 965.9999999999972 137.3333333333341 C 1084.557126297007 137.3333333333341 1180.6666666666629 233.44287370299008 1180.6666666666629 351.99999999999994 Z" stroke-opacity="0.6980392156862745" stroke-linecap="round" stroke-linejoin="round" stroke-miterlimit="10" stroke-width="2.5"/><path fill="rgb(255,0,0)" stroke="none" paint-order="stroke fill markers" d=" M 371.99999999999966 351.99999999999994 C 371.99999999999966 334.1367205045918 362.4700538379248 317.63036955848213 346.99999999999966 308.698729810778 L 321.99999999999966 351.99999999999994 Z" fill-opacity="0.2980392156862745"/><path fill="none" stroke="rgb(255,0,0)" paint-order="fill stroke markers" d=" M 371.99999999999966 351.99999999999994 C 371.99999999999966 334.1367205045918 362.4700538379248 317.63036955848213 346.99999999999966 308.698729810778 L 321.99999999999966 351.99999999999994 Z" stroke-opacity="1" stroke-linecap="round" stroke-linejoin="round" stroke-miterlimit="10" stroke-width="2.5"/><path fill="rgb(153,102,255)" stroke="none" paint-order="stroke fill markers" d=" M 1015.9999999999972 351.99999999999994 C 1015.9999999999972 329.3697160757749 1000.8001279537865 309.5608571612134 978.9409522551232 303.70370868554653 C 957.0817765564599 297.84656020987967 934.0138717728878 307.40159922676645 922.6987298107751 326.99999999999994 L 965.9999999999972 351.99999999999994 Z" fill-opacity="0.26666666666666666"/><path fill="none" stroke="rgb(153,102,255)" paint-order="fill stroke markers" d=" M 1015.9999999999972 351.99999999999994 C 1015.9999999999972 329.3697160757749 1000.8001279537865 309.5608571612134 978.9409522551232 303.70370868554653 C 957.0817765564599 297.84656020987967 934.0138717728878 307.40159922676645 922.6987298107751 326.99999999999994 L 965.9999999999972 351.99999999999994 Z" stroke-opacity="1" stroke-linecap="round" stroke-linejoin="round" stroke-miterlimit="10" stroke-width="2.5"/><path fill="none" stroke="rgb(255,255,255)" paint-order="fill stroke markers" d=" M -5 351.99999999999994 L 1293 351.99999999999994" stroke-opacity="1" stroke-linecap="round" stroke-linejoin="round" stroke-miterlimit="10"/><path fill="none" stroke="rgb(255,255,255)" paint-order="fill stroke markers" d=" M 321.99999999999966 709 L 321.99999999999966 -5" stroke-opacity="1" stroke-linecap="round" stroke-linejoin="round" stroke-miterlimit="10"/><path fill="none" stroke="rgb(255,255,255)" paint-order="fill stroke markers" d=" M 965.9999999999972 709 L 965.9999999999972 -5" stroke-opacity="1" stroke-linecap="round" stroke-linejoin="round" stroke-miterlimit="10"/><path fill="none" stroke="rgb(255,255,255)" paint-order="fill stroke markers" d=" M 321.99999999999966 351.99999999999994 L 429.3333333333326 166.09321332094117" stroke-opacity="0.6980392156862745" stroke-linecap="round" stroke-linejoin="round" stroke-miterlimit="10" stroke-width="2.5"/><path fill="none" stroke="rgb(255,255,255)" paint-order="fill stroke markers" d=" M 965.9999999999972 351.99999999999994 L 780.0932133209384 244.66666666666697" stroke-opacity="0.6980392156862745" stroke-linecap="round" stroke-linejoin="round" stroke-miterlimit="10" stroke-width="2.5"/><path fill="none" stroke="rgb(255,102,0)" paint-order="fill stroke markers" d=" M 321.99999999999966 351.99999999999994 L 429.3333333333326 351.99999999999994" stroke-opacity="0.6980392156862745" stroke-linecap="round" stroke-linejoin="round" stroke-miterlimit="10" stroke-width="2.5"/><path fill="none" stroke="rgb(0,153,255)" paint-order="fill stroke markers" d=" M 429.3333333333326 351.99999999999994 L 429.3333333333326 166.09321332094117" stroke-opacity="0.6980392156862745" stroke-linecap="round" stroke-linejoin="round" stroke-miterlimit="10" stroke-width="2.5"/><path fill="none" stroke="rgb(255,102,0)" paint-order="fill stroke markers" d=" M 780.0932133209384 244.66666666666697 L 780.0932133209384 351.99999999999994" stroke-opacity="0.6980392156862745" stroke-linecap="round" stroke-linejoin="round" stroke-miterlimit="10" stroke-width="2.5"/><path fill="none" stroke="rgb(0,153,255)" paint-order="fill stroke markers" d=" M 780.0932133209384 351.99999999999994 L 965.9999999999972 351.99999999999994" stroke-opacity="0.6980392156862745" stroke-linecap="round" stroke-linejoin="round" stroke-miterlimit="10" stroke-width="2.5"/><path fill="rgb(255,255,255)" stroke="none" paint-order="stroke fill markers" d=" M 326.99999999999966 351.99999999999994 C 326.99999999999966 354.7614237491539 324.7614237491536 356.99999999999994 321.99999999999966 356.99999999999994 C 319.2385762508457 356.99999999999994 316.99999999999966 354.7614237491539 316.99999999999966 351.99999999999994 C 316.99999999999966 349.238576250846 319.2385762508457 346.99999999999994 321.99999999999966 346.99999999999994 C 324.7614237491536 346.99999999999994 326.99999999999966 349.238576250846 326.99999999999966 351.99999999999994 Z" fill-opacity="1"/><path fill="none" stroke="rgb(0,0,0)" paint-order="fill stroke markers" d=" M 326.99999999999966 351.99999999999994 C 326.99999999999966 354.7614237491539 324.7614237491536 356.99999999999994 321.99999999999966 356.99999999999994 C 319.2385762508457 356.99999999999994 316.99999999999966 354.7614237491539 316.99999999999966 351.99999999999994 C 316.99999999999966 349.238576250846 319.2385762508457 346.99999999999994 321.99999999999966 346.99999999999994 C 324.7614237491536 346.99999999999994 326.99999999999966 349.238576250846 326.99999999999966 351.99999999999994 Z" stroke-opacity="1" stroke-linecap="round" stroke-linejoin="round" stroke-miterlimit="10"/><path fill="rgb(255,255,255)" stroke="none" paint-order="stroke fill markers" d=" M 970.9999999999972 351.99999999999994 C 970.9999999999972 354.7614237491539 968.7614237491512 356.99999999999994 965.9999999999972 356.99999999999994 C 963.2385762508432 356.99999999999994 960.9999999999972 354.7614237491539 960.9999999999972 351.99999999999994 C 960.9999999999972 349.238576250846 963.2385762508432 346.99999999999994 965.9999999999972 346.99999999999994 C 968.7614237491512 346.99999999999994 970.9999999999972 349.238576250846 970.9999999999972 351.99999999999994 Z" fill-opacity="1"/><path fill="none" stroke="rgb(0,0,0)" paint-order="fill stroke markers" d=" M 970.9999999999972 351.99999999999994 C 970.9999999999972 354.7614237491539 968.7614237491512 356.99999999999994 965.9999999999972 356.99999999999994 C 963.2385762508432 356.99999999999994 960.9999999999972 354.7614237491539 960.9999999999972 351.99999999999994 C 960.9999999999972 349.238576250846 963.2385762508432 346.99999999999994 965.9999999999972 346.99999999999994 C 968.7614237491512 346.99999999999994 970.9999999999972 349.238576250846 970.9999999999972 351.99999999999994 Z" stroke-opacity="1" stroke-linecap="round" stroke-linejoin="round" stroke-miterlimit="10"/><path fill="rgb(255,255,255)" stroke="none" paint-order="stroke fill markers" d=" M 434.3333333333326 166.09321332094117 C 434.3333333333326 168.85463707009515 432.0947570824865 171.09321332094117 429.3333333333326 171.09321332094117 C 426.5719095841786 171.09321332094117 424.3333333333326 168.85463707009515 424.3333333333326 166.09321332094117 C 424.3333333333326 163.3317895717872 426.5719095841786 161.09321332094117 429.3333333333326 161.09321332094117 C 432.0947570824865 161.09321332094117 434.3333333333326 163.3317895717872 434.3333333333326 166.09321332094117 Z" fill-opacity="1"/><path fill="none" stroke="rgb(0,0,0)" paint-order="fill stroke markers" d=" M 434.3333333333326 166.09321332094117 C 434.3333333333326 168.85463707009515 432.0947570824865 171.09321332094117 429.3333333333326 171.09321332094117 C 426.5719095841786 171.09321332094117 424.3333333333326 168.85463707009515 424.3333333333326 166.09321332094117 C 424.3333333333326 163.3317895717872 426.5719095841786 161.09321332094117 429.3333333333326 161.09321332094117 C 432.0947570824865 161.09321332094117 434.3333333333326 163.3317895717872 434.3333333333326 166.09321332094117 Z" stroke-opacity="1" stroke-linecap="round" stroke-linejoin="round" stroke-miterlimit="10"/><path fill="rgb(255,255,255)" stroke="none" paint-order="stroke fill markers" d=" M 785.0932133209384 244.66666666666697 C 785.0932133209384 247.42809041582095 782.8546370700924 249.66666666666697 780.0932133209384 249.66666666666697 C 777.3317895717844 249.66666666666697 775.0932133209384 247.42809041582095 775.0932133209384 244.66666666666697 C 775.0932133209384 241.905242917513 777.3317895717844 239.66666666666697 780.0932133209384 239.66666666666697 C 782.8546370700924 239.66666666666697 785.0932133209384 241.905242917513 785.0932133209384 244.66666666666697 Z" fill-opacity="1"/><path fill="none" stroke="rgb(0,0,0)" paint-order="fill stroke markers" d=" M 785.0932133209384 244.66666666666697 C 785.0932133209384 247.42809041582095 782.8546370700924 249.66666666666697 780.0932133209384 249.66666666666697 C 777.3317895717844 249.66666666666697 775.0932133209384 247.42809041582095 775.0932133209384 244.66666666666697 C 775.0932133209384 241.905242917513 777.3317895717844 239.66666666666697 780.0932133209384 239.66666666666697 C 782.8546370700924 239.66666666666697 785.0932133209384 241.905242917513 785.0932133209384 244.66666666666697 Z" stroke-opacity="1" stroke-linecap="round" stroke-linejoin="round" stroke-miterlimit="10"/><path fill="rgb(255,255,255)" stroke="none" paint-order="stroke fill markers" d=" M 434.3333333333326 351.99999999999994 C 434.3333333333326 354.7614237491539 432.0947570824865 356.99999999999994 429.3333333333326 356.99999999999994 C 426.5719095841786 356.99999999999994 424.3333333333326 354.7614237491539 424.3333333333326 351.99999999999994 C 424.3333333333326 349.238576250846 426.5719095841786 346.99999999999994 429.3333333333326 346.99999999999994 C 432.0947570824865 346.99999999999994 434.3333333333326 349.238576250846 434.3333333333326 351.99999999999994 Z" fill-opacity="1"/><path fill="none" stroke="rgb(0,0,0)" paint-order="fill stroke markers" d=" M 434.3333333333326 351.99999999999994 C 434.3333333333326 354.7614237491539 432.0947570824865 356.99999999999994 429.3333333333326 356.99999999999994 C 426.5719095841786 356.99999999999994 424.3333333333326 354.7614237491539 424.3333333333326 351.99999999999994 C 424.3333333333326 349.238576250846 426.5719095841786 346.99999999999994 429.3333333333326 346.99999999999994 C 432.0947570824865 346.99999999999994 434.3333333333326 349.238576250846 434.3333333333326 351.99999999999994 Z" stroke-opacity="1" stroke-linecap="round" stroke-linejoin="round" stroke-miterlimit="10"/><path fill="rgb(255,255,255)" stroke="none" paint-order="stroke fill markers" d=" M 785.0932133209384 351.99999999999994 C 785.0932133209384 354.7614237491539 782.8546370700924 356.99999999999994 780.0932133209384 356.99999999999994 C 777.3317895717844 356.99999999999994 775.0932133209384 354.7614237491539 775.0932133209384 351.99999999999994 C 775.0932133209384 349.238576250846 777.3317895717844 346.99999999999994 780.0932133209384 346.99999999999994 C 782.8546370700924 346.99999999999994 785.0932133209384 349.238576250846 785.0932133209384 351.99999999999994 Z" fill-opacity="1"/><path fill="none" stroke="rgb(0,0,0)" paint-order="fill stroke markers" d=" M 785.0932133209384 351.99999999999994 C 785.0932133209384 354.7614237491539 782.8546370700924 356.99999999999994 780.0932133209384 356.99999999999994 C 777.3317895717844 356.99999999999994 775.0932133209384 354.7614237491539 775.0932133209384 351.99999999999994 C 775.0932133209384 349.238576250846 777.3317895717844 346.99999999999994 780.0932133209384 346.99999999999994 C 782.8546370700924 346.99999999999994 785.0932133209384 349.238576250846 785.0932133209384 351.99999999999994 Z" stroke-opacity="1" stroke-linecap="round" stroke-linejoin="round" stroke-miterlimit="10"/><g transform="scale(28,28)"><g transform="translate(13.357142857142858,11.609571428571428)"><path fill="rgb(255,255,255)" stroke="none" paint-order="stroke fill markers" d=" M 0.47700000000000004 -0.23600000000000002 L 0.47700000000000004 -0.23600000000000002 L 0.47700000000000004 -0.17400000000000002 Q 0.542 -0.255 0.5750000000000001 -0.372 Q 0.585 -0.392 0.59 -0.393 Q 0.602 -0.393 0.602 -0.383 Q 0.602 -0.366 0.579 -0.307 Q 0.545 -0.221 0.487 -0.148 Q 0.47700000000000004 -0.128 0.47700000000000004 -0.113 Q 0.47700000000000004 -0.011 0.508 -0.011 Q 0.539 -0.011 0.558 -0.046 Q 0.561 -0.052000000000000005 0.5640000000000001 -0.06 Q 0.5680000000000001 -0.07 0.577 -0.07 Q 0.589 -0.07 0.589 -0.06 Q 0.589 -0.041 0.5640000000000001 -0.015 Q 0.538 0.011 0.505 0.011 Q 0.442 0.011 0.418 -0.058 Q 0.41600000000000004 -0.065 0.41400000000000003 -0.073 Q 0.309 0.011 0.203 0.011 Q 0.109 0.011 0.065 -0.064 Q 0.041 -0.105 0.041 -0.158 Q 0.041 -0.26 0.11900000000000001 -0.34700000000000003 Q 0.196 -0.433 0.293 -0.441 Q 0.302 -0.442 0.31 -0.442 Q 0.394 -0.442 0.44 -0.376 Q 0.44 -0.375 0.441 -0.375 Q 0.47700000000000004 -0.322 0.47700000000000004 -0.23600000000000002 M 0.41000000000000003 -0.099 L 0.41000000000000003 -0.099 Q 0.40800000000000003 -0.116 0.40800000000000003 -0.211 Q 0.40800000000000003 -0.334 0.381 -0.379 Q 0.369 -0.399 0.352 -0.40900000000000003 L 0.35100000000000003 -0.41000000000000003 L 0.35100000000000003 -0.41000000000000003 L 0.35000000000000003 -0.41000000000000003 Q 0.332 -0.42 0.309 -0.42 Q 0.23800000000000002 -0.42 0.181 -0.34 L 0.17300000000000001 -0.328 Q 0.137 -0.27 0.12 -0.166 Q 0.115 -0.138 0.115 -0.12 Q 0.115 -0.036000000000000004 0.17400000000000002 -0.016 Q 0.188 -0.011 0.20500000000000002 -0.011 Q 0.309 -0.011 0.41000000000000003 -0.099 Z"/></g></g><g transform="scale(28,28)"><g transform="translate(36.07142857142857,11.295120571428571)"><path fill="rgb(255,255,255)" stroke="none" paint-order="stroke fill markers" d=" M 0.367 -0.318 Q 0.327 -0.218 0.242 -0.218 Q 0.149 -0.218 0.09 -0.294 L 0.09 -0.295 Q 0.042 -0.357 0.042 -0.441 Q 0.042 -0.525 0.091 -0.586 L 0.106 -0.603 Q 0.166 -0.666 0.253 -0.666 Q 0.353 -0.666 0.40800000000000003 -0.5690000000000001 Q 0.457 -0.482 0.457 -0.329 Q 0.457 -0.158 0.365 -0.055 Q 0.296 0.022 0.20600000000000002 0.022 Q 0.108 0.022 0.077 -0.039 Q 0.067 -0.06 0.067 -0.08600000000000001 Q 0.067 -0.126 0.10400000000000001 -0.133 Q 0.109 -0.134 0.113 -0.134 Q 0.145 -0.134 0.156 -0.106 Q 0.159 -0.098 0.159 -0.088 Q 0.159 -0.048 0.11900000000000001 -0.043000000000000003 Q 0.113 -0.042 0.107 -0.042 Q 0.136 -0.006 0.20500000000000002 -0.006 Q 0.276 -0.006 0.321 -0.077 Q 0.367 -0.15 0.367 -0.28600000000000003 L 0.367 -0.318 M 0.243 -0.241 Q 0.321 -0.241 0.352 -0.333 Q 0.365 -0.374 0.365 -0.421 Q 0.365 -0.519 0.34900000000000003 -0.562 Q 0.323 -0.632 0.266 -0.64 Q 0.259 -0.641 0.253 -0.641 Q 0.187 -0.641 0.153 -0.578 Q 0.132 -0.541 0.132 -0.452 L 0.132 -0.44 Q 0.132 -0.341 0.15 -0.304 Q 0.181 -0.241 0.243 -0.241 Z"/></g><g transform="translate(36.57142857142857,11.295120571428571)"><path fill="rgb(255,255,255)" stroke="none" paint-order="stroke fill markers" d=" M 0.46 -0.32 Q 0.46 -0.17400000000000002 0.423 -0.094 Q 0.364 0.018000000000000002 0.249 0.022 Q 0.158 0.022 0.10300000000000001 -0.05 Q 0.092 -0.063 0.084 -0.079 Q 0.039 -0.162 0.039 -0.32 Q 0.039 -0.467 0.076 -0.547 Q 0.126 -0.659 0.23800000000000002 -0.666 L 0.25 -0.666 Q 0.339 -0.666 0.395 -0.595 L 0.395 -0.594 Q 0.40900000000000003 -0.5760000000000001 0.42 -0.554 Q 0.46 -0.46900000000000003 0.46 -0.32 M 0.249 0 L 0.249 0 Q 0.312 0 0.34600000000000003 -0.061 Q 0.36 -0.088 0.366 -0.125 Q 0.377 -0.189 0.377 -0.332 Q 0.377 -0.47100000000000003 0.367 -0.527 Q 0.34900000000000003 -0.622 0.275 -0.641 Q 0.262 -0.644 0.249 -0.644 Q 0.179 -0.644 0.147 -0.5740000000000001 Q 0.136 -0.55 0.13 -0.516 Q 0.122 -0.462 0.122 -0.332 Q 0.122 -0.181 0.133 -0.121 Q 0.151 -0.025 0.221 -0.004 Q 0.23500000000000001 0 0.249 0 Z"/></g><g transform="translate(37.07142857142857,10.882228571428572) scale(0.7,0.7)"><path fill="rgb(255,255,255)" stroke="none" paint-order="stroke fill markers" d=" M 0.443 -0.25 L 0.443 -0.25 Q 0.443 -0.161 0.376 -0.10300000000000001 Q 0.321 -0.056 0.249 -0.056 Q 0.161 -0.056 0.10300000000000001 -0.124 Q 0.056 -0.179 0.056 -0.25 Q 0.056 -0.339 0.123 -0.397 Q 0.178 -0.444 0.25 -0.444 Q 0.338 -0.444 0.396 -0.376 Q 0.443 -0.321 0.443 -0.25 M 0.25 -0.096 L 0.25 -0.096 Q 0.325 -0.096 0.371 -0.156 Q 0.403 -0.198 0.403 -0.25 Q 0.403 -0.326 0.343 -0.372 Q 0.302 -0.404 0.25 -0.404 Q 0.17300000000000001 -0.404 0.126 -0.342 Q 0.096 -0.301 0.096 -0.25 Q 0.096 -0.17500000000000002 0.155 -0.129 Q 0.197 -0.096 0.25 -0.096 Z"/></g><g transform="translate(37.661441222399006,11.295120571428571)"><path fill="rgb(255,255,255)" stroke="none" paint-order="stroke fill markers" d=" M 0.40900000000000003 -0.23 L 0.40900000000000003 0.05 Q 0.40900000000000003 0.082 0.389 0.083 Q 0.369 0.083 0.369 0.05 L 0.369 -0.23 L 0.089 -0.23 Q 0.057 -0.23 0.056 -0.25 Q 0.056 -0.27 0.089 -0.27 L 0.369 -0.27 L 0.369 -0.55 Q 0.369 -0.582 0.389 -0.583 Q 0.40900000000000003 -0.583 0.40900000000000003 -0.55 L 0.40900000000000003 -0.27 L 0.6880000000000001 -0.27 Q 0.72 -0.27 0.721 -0.25 Q 0.721 -0.23 0.6880000000000001 -0.23 L 0.40900000000000003 -0.23 Z"/></g><g transform="translate(38.661663444621226,11.295120571428571)"><path fill="rgb(255,255,255)" stroke="none" paint-order="stroke fill markers" d=" M 0.47700000000000004 -0.23600000000000002 L 0.47700000000000004 -0.23600000000000002 L 0.47700000000000004 -0.17400000000000002 Q 0.542 -0.255 0.5750000000000001 -0.372 Q 0.585 -0.392 0.59 -0.393 Q 0.602 -0.393 0.602 -0.383 Q 0.602 -0.366 0.579 -0.307 Q 0.545 -0.221 0.487 -0.148 Q 0.47700000000000004 -0.128 0.47700000000000004 -0.113 Q 0.47700000000000004 -0.011 0.508 -0.011 Q 0.539 -0.011 0.558 -0.046 Q 0.561 -0.052000000000000005 0.5640000000000001 -0.06 Q 0.5680000000000001 -0.07 0.577 -0.07 Q 0.589 -0.07 0.589 -0.06 Q 0.589 -0.041 0.5640000000000001 -0.015 Q 0.538 0.011 0.505 0.011 Q 0.442 0.011 0.418 -0.058 Q 0.41600000000000004 -0.065 0.41400000000000003 -0.073 Q 0.309 0.011 0.203 0.011 Q 0.109 0.011 0.065 -0.064 Q 0.041 -0.105 0.041 -0.158 Q 0.041 -0.26 0.11900000000000001 -0.34700000000000003 Q 0.196 -0.433 0.293 -0.441 Q 0.302 -0.442 0.31 -0.442 Q 0.394 -0.442 0.44 -0.376 Q 0.44 -0.375 0.441 -0.375 Q 0.47700000000000004 -0.322 0.47700000000000004 -0.23600000000000002 M 0.41000000000000003 -0.099 L 0.41000000000000003 -0.099 Q 0.40800000000000003 -0.116 0.40800000000000003 -0.211 Q 0.40800000000000003 -0.334 0.381 -0.379 Q 0.369 -0.399 0.352 -0.40900000000000003 L 0.35100000000000003 -0.41000000000000003 L 0.35100000000000003 -0.41000000000000003 L 0.35000000000000003 -0.41000000000000003 Q 0.332 -0.42 0.309 -0.42 Q 0.23800000000000002 -0.42 0.181 -0.34 L 0.17300000000000001 -0.328 Q 0.137 -0.27 0.12 -0.166 Q 0.115 -0.138 0.115 -0.12 Q 0.115 -0.036000000000000004 0.17400000000000002 -0.016 Q 0.188 -0.011 0.20500000000000002 -0.011 Q 0.309 -0.011 0.41000000000000003 -0.099 Z"/></g></g></g></g></svg>