<svg version="1.1" xmlns="http://www.w3.org/2000/svg" xmlns:xlink="http://www.w3.org/1999/xlink" width="1288" height="704"><defs><clipPath id="fNrEtkGfbHTt"><path fill="none" stroke="none" d=" M 0 0 L 1288 0 L 1288 704 L 0 704 L 0 0 Z"/></clipPath></defs><g transform="scale(1,1)" clip-path="url(#fNrEtkGfbHTt)"><g><rect fill="rgb(0,0,0)" stroke="none" x="0" y="0" width="1288" height="704" fill-opacity="1"/><path fill="none" stroke="rgb(32,32,32)" paint-order="fill stroke markers" d=" M 0.5 0.5 L 0.5 704.5 M 0.5 0.5 L 0.5 704.5 M 214.5 0.5 L 214.5 704.5 M 429.5 0.5 L 429.5 704.5 M 643.5 0.5 L 643.5 704.5 M 858.5 0.5 L 858.5 704.5 M 1073.5 0.5 L 1073.5 704.5 M 1287.5 0.5 L 1287.5 704.5" stroke-opacity="1" stroke-linecap="round" stroke-linejoin="round" stroke-miterlimit="10"/><path fill="none" stroke="rgb(32,32,32)" paint-order="fill stroke markers" d="" stroke-opacity="0.23529411764705882" stroke-linecap="round" stroke-linejoin="round" stroke-miterlimit="10"/><path fill="none" stroke="rgb(32,32,32)" paint-order="fill stroke markers" d=" M 0.5 137.5 L 1288.5 137.5 M 0.5 137.5 L 1288.5 137.5 M 0.5 351.5 L 1288.5 351.5 M 0.5 566.5 L 1288.5 566.5" stroke-opacity="1" stroke-linecap="round" stroke-linejoin="round" stroke-miterlimit="10"/><path fill="none" stroke="rgb(32,32,32)" paint-order="fill stroke markers" d="" stroke-opacity="0.23529411764705882" stroke-linecap="round" stroke-linejoin="round" stroke-miterlimit="10"/><path fill="none" stroke="rgb(255,255,255)" paint-order="fill stroke markers" d=" M 536.6666666666656 351.99999999999994 C 536.6666666666656 470.55712629701 440.5571262970094 566.6666666666661 321.99999999999943 566.6666666666661 C 203.4428737029894 566.6666666666661 107.33333333333329 470.55712629701 107.33333333333329 351.99999999999994 C 107.33333333333329 233.4428737029899 203.4428737029894 137.3333333333338 321.99999999999943 137.3333333333338 C 440.5571262970094 137.3333333333338 536.6666666666656 233.4428737029899 536.6666666666656 351.99999999999994 Z" stroke-opacity="0.6980392156862745" stroke-linecap="round" stroke-linejoin="round" stroke-miterlimit="10" stroke-width="2.5"/><path fill="none" stroke="rgb(255,255,255)" paint-order="fill stroke markers" d=" M 1180.666666666664 351.99999999999994 C 1180.666666666664 470.55712629701 1084.557126297008 566.6666666666661 965.9999999999978 566.6666666666661 C 847.4428737029878 566.6666666666661 751.3333333333317 470.55712629701 751.3333333333317 351.99999999999994 C 751.3333333333317 233.4428737029899 847.4428737029878 137.3333333333338 965.9999999999978 137.3333333333338 C 1084.557126297008 137.3333333333338 1180.666666666664 233.4428737029899 1180.666666666664 351.99999999999994 Z" stroke-opacity="0.6980392156862745" stroke-linecap="round" stroke-linejoin="round" stroke-miterlimit="10" stroke-width="2.5"/><path fill="rgb(255,0,0)" stroke="none" paint-order="stroke fill markers" d=" M 371.9999999999994 351.99999999999994 C 371.9999999999994 334.1367205045918 362.4700538379246 317.63036955848213 346.99999999999943 308.698729810778 L 321.99999999999943 351.99999999999994 Z" fill-opacity="0.2980392156862745"/><path fill="none" stroke="rgb(255,0,0)" paint-order="fill stroke markers" d=" M 371.9999999999994 351.99999999999994 C 371.9999999999994 334.1367205045918 362.4700538379246 317.63036955848213 346.99999999999943 308.698729810778 L 321.99999999999943 351.99999999999994 Z" stroke-opacity="1" stroke-linecap="round" stroke-linejoin="round" stroke-miterlimit="10" stroke-width="2.5"/><path fill="rgb(153,102,255)" stroke="none" paint-order="stroke fill markers" d=" M 1015.9999999999978 351.99999999999994 C 1015.9999999999978 327.73531771558646 998.5784561214127 306.973130209745 974.6824088833444 302.75961234938956 C 950.786361645276 298.5460944890341 927.3143790733693 312.09764994533856 919.0153689607025 334.8989928337165 C 910.7163588480355 357.7003357220944 919.9861687269374 383.16892904701507 940.9999999999977 395.30127018922184 L 965.9999999999978 351.99999999999994 Z" fill-opacity="0.26666666666666666"/><path fill="none" stroke="rgb(153,102,255)" paint-order="fill stroke markers" d=" M 1015.9999999999978 351.99999999999994 C 1015.9999999999978 327.73531771558646 998.5784561214127 306.973130209745 974.6824088833444 302.75961234938956 C 950.786361645276 298.5460944890341 927.3143790733693 312.09764994533856 919.0153689607025 334.8989928337165 C 910.7163588480355 357.7003357220944 919.9861687269374 383.16892904701507 940.9999999999977 395.30127018922184 L 965.9999999999978 351.99999999999994 Z" stroke-opacity="1" stroke-linecap="round" stroke-linejoin="round" stroke-miterlimit="10" stroke-width="2.5"/><path fill="none" stroke="rgb(255,255,255)" paint-order="fill stroke markers" d=" M -5 351.99999999999994 L 1293 351.99999999999994" stroke-opacity="1" stroke-linecap="round" stroke-linejoin="round" stroke-miterlimit="10"/><path fill="none" stroke="rgb(255,255,255)" paint-order="fill stroke markers" d=" M 321.99999999999943 709 L 321.99999999999943 -5" stroke-opacity="1" stroke-linecap="round" stroke-linejoin="round" stroke-miterlimit="10"/><path fill="none" stroke="rgb(255,255,255)" paint-order="fill stroke markers" d=" M 965.9999999999978 709 L 965.9999999999978 -5" stroke-opacity="1" stroke-linecap="round" stroke-linejoin="round" stroke-miterlimit="10"/><path fill="none" stroke="rgb(255,255,255)" paint-order="fill stroke markers" d=" M 321.99999999999943 351.99999999999994 L 429.3333333333325 166.09321332094092" stroke-opacity="0.6980392156862745" stroke-linecap="round" stroke-linejoin="round" stroke-miterlimit="10" stroke-width="2.5"/><path fill="none" stroke="rgb(255,255,255)" paint-order="fill stroke markers" d=" M 965.9999999999978 351.99999999999994 L 858.6666666666647 537.906786679059" stroke-opacity="0.6980392156862745" stroke-linecap="round" stroke-linejoin="round" stroke-miterlimit="10" stroke-width="2.5"/><path fill="none" stroke="rgb(255,102,0)" paint-order="fill stroke markers" d=" M 321.99999999999943 351.99999999999994 L 429.3333333333325 351.99999999999994" stroke-opacity="0.6980392156862745" stroke-linecap="round" stroke-linejoin="round" stroke-miterlimit="10" stroke-width="2.5"/><path fill="none" stroke="rgb(0,153,255)" paint-order="fill stroke markers" d=" M 429.3333333333325 351.99999999999994 L 429.3333333333325 166.09321332094092" stroke-opacity="0.6980392156862745" stroke-linecap="round" stroke-linejoin="round" stroke-miterlimit="10" stroke-width="2.5"/><path fill="none" stroke="rgb(0,153,255)" paint-order="fill stroke markers" d=" M 858.6666666666647 537.906786679059 L 858.6666666666647 351.99999999999994" stroke-opacity="0.6980392156862745" stroke-linecap="round" stroke-linejoin="round" stroke-miterlimit="10" stroke-width="2.5"/><path fill="none" stroke="rgb(255,102,0)" paint-order="fill stroke markers" d=" M 858.6666666666647 351.99999999999994 L 965.9999999999978 351.99999999999994" stroke-opacity="0.6980392156862745" stroke-linecap="round" stroke-linejoin="round" stroke-miterlimit="10" stroke-width="2.5"/><path fill="rgb(255,255,255)" stroke="none" paint-order="stroke fill markers" d=" M 326.99999999999943 351.99999999999994 C 326.99999999999943 354.7614237491539 324.7614237491534 356.99999999999994 321.99999999999943 356.99999999999994 C 319.2385762508455 356.99999999999994 316.99999999999943 354.7614237491539 316.99999999999943 351.99999999999994 C 316.99999999999943 349.238576250846 319.2385762508455 346.99999999999994 321.99999999999943 346.99999999999994 C 324.7614237491534 346.99999999999994 326.99999999999943 349.238576250846 326.99999999999943 351.99999999999994 Z" fill-opacity="1"/><path fill="none" stroke="rgb(0,0,0)" paint-order="fill stroke markers" d=" M 326.99999999999943 351.99999999999994 C 326.99999999999943 354.7614237491539 324.7614237491534 356.99999999999994 321.99999999999943 356.99999999999994 C 319.2385762508455 356.99999999999994 316.99999999999943 354.7614237491539 316.99999999999943 351.99999999999994 C 316.99999999999943 349.238576250846 319.2385762508455 346.99999999999994 321.99999999999943 346.99999999999994 C 324.7614237491534 346.99999999999994 326.99999999999943 349.238576250846 326.99999999999943 351.99999999999994 Z" stroke-opacity="1" stroke-linecap="round" stroke-linejoin="round" stroke-miterlimit="10"/><path fill="rgb(255,255,255)" stroke="none" paint-order="stroke fill markers" d=" M 970.9999999999978 351.99999999999994 C 970.9999999999978 354.7614237491539 968.7614237491518 356.99999999999994 965.9999999999978 356.99999999999994 C 963.2385762508438 356.99999999999994 960.9999999999978 354.7614237491539 960.9999999999978 351.99999999999994 C 960.9999999999978 349.238576250846 963.2385762508438 346.99999999999994 965.9999999999978 346.99999999999994 C 968.7614237491518 346.99999999999994 970.9999999999978 349.238576250846 970.9999999999978 351.99999999999994 Z" fill-opacity="1"/><path fill="none" stroke="rgb(0,0,0)" paint-order="fill stroke markers" d=" M 970.9999999999978 351.99999999999994 C 970.9999999999978 354.7614237491539 968.7614237491518 356.99999999999994 965.9999999999978 356.99999999999994 C 963.2385762508438 356.99999999999994 960.9999999999978 354.7614237491539 960.9999999999978 351.99999999999994 C 960.9999999999978 349.238576250846 963.2385762508438 346.99999999999994 965.9999999999978 346.99999999999994 C 968.7614237491518 346.99999999999994 970.9999999999978 349.238576250846 970.9999999999978 351.99999999999994 Z" stroke-opacity="1" stroke-linecap="round" stroke-linejoin="round" stroke-miterlimit="10"/><path fill="rgb(255,255,255)" stroke="none" paint-order="stroke fill markers" d=" M 434.3333333333325 166.09321332094092 C 434.3333333333325 168.8546370700949 432.09475708248647 171.09321332094092 429.3333333333325 171.09321332094092 C 426.57190958417857 171.09321332094092 424.3333333333325 168.8546370700949 424.3333333333325 166.09321332094092 C 424.3333333333325 163.33178957178694 426.57190958417857 161.09321332094092 429.3333333333325 161.09321332094092 C 432.09475708248647 161.09321332094092 434.3333333333325 163.33178957178694 434.3333333333325 166.09321332094092 Z" fill-opacity="1"/><path fill="none" stroke="rgb(0,0,0)" paint-order="fill stroke markers" d=" M 434.3333333333325 166.09321332094092 C 434.3333333333325 168.8546370700949 432.09475708248647 171.09321332094092 429.3333333333325 171.09321332094092 C 426.57190958417857 171.09321332094092 424.3333333333325 168.8546370700949 424.3333333333325 166.09321332094092 C 424.3333333333325 163.33178957178694 426.57190958417857 161.09321332094092 429.3333333333325 161.09321332094092 C 432.09475708248647 161.09321332094092 434.3333333333325 163.33178957178694 434.3333333333325 166.09321332094092 Z" stroke-opacity="1" stroke-linecap="round" stroke-linejoin="round" stroke-miterlimit="10"/><path fill="rgb(255,255,255)" stroke="none" paint-order="stroke fill markers" d=" M 863.6666666666647 537.906786679059 C 863.6666666666647 540.668210428213 861.4280904158187 542.906786679059 858.6666666666647 542.906786679059 C 855.9052429175107 542.906786679059 853.6666666666647 540.668210428213 853.6666666666647 537.906786679059 C 853.6666666666647 535.145362929905 855.9052429175107 532.906786679059 858.6666666666647 532.906786679059 C 861.4280904158187 532.906786679059 863.6666666666647 535.145362929905 863.6666666666647 537.906786679059 Z" fill-opacity="1"/><path fill="none" stroke="rgb(0,0,0)" paint-order="fill stroke markers" d=" M 863.6666666666647 537.906786679059 C 863.6666666666647 540.668210428213 861.4280904158187 542.906786679059 858.6666666666647 542.906786679059 C 855.9052429175107 542.906786679059 853.6666666666647 540.668210428213 853.6666666666647 537.906786679059 C 853.6666666666647 535.145362929905 855.9052429175107 532.906786679059 858.6666666666647 532.906786679059 C 861.4280904158187 532.906786679059 863.6666666666647 535.145362929905 863.6666666666647 537.906786679059 Z" stroke-opacity="1" stroke-linecap="round" stroke-linejoin="round" stroke-miterlimit="10"/><path fill="rgb(255,255,255)" stroke="none" paint-order="stroke fill markers" d=" M 434.3333333333325 351.99999999999994 C 434.3333333333325 354.7614237491539 432.09475708248647 356.99999999999994 429.3333333333325 356.99999999999994 C 426.57190958417857 356.99999999999994 424.3333333333325 354.7614237491539 424.3333333333325 351.99999999999994 C 424.3333333333325 349.238576250846 426.57190958417857 346.99999999999994 429.3333333333325 346.99999999999994 C 432.09475708248647 346.99999999999994 434.3333333333325 349.238576250846 434.3333333333325 351.99999999999994 Z" fill-opacity="1"/><path fill="none" stroke="rgb(0,0,0)" paint-order="fill stroke markers" d=" M 434.3333333333325 351.99999999999994 C 434.3333333333325 354.7614237491539 432.09475708248647 356.99999999999994 429.3333333333325 356.99999999999994 C 426.57190958417857 356.99999999999994 424.3333333333325 354.7614237491539 424.3333333333325 351.99999999999994 C 424.3333333333325 349.238576250846 426.57190958417857 346.99999999999994 429.3333333333325 346.99999999999994 C 432.09475708248647 346.99999999999994 434.3333333333325 349.238576250846 434.3333333333325 351.99999999999994 Z" stroke-opacity="1" stroke-linecap="round" stroke-linejoin="round" stroke-miterlimit="10"/><path fill="rgb(255,255,255)" stroke="none" paint-order="stroke fill markers" d=" M 863.6666666666647 351.99999999999994 C 863.6666666666647 354.7614237491539 861.4280904158187 356.99999999999994 858.6666666666647 356.99999999999994 C 855.9052429175107 356.99999999999994 853.6666666666647 354.7614237491539 853.6666666666647 351.99999999999994 C 853.6666666666647 349.238576250846 855.9052429175107 346.99999999999994 858.6666666666647 346.99999999999994 C 861.4280904158187 346.99999999999994 863.6666666666647 349.238576250846 863.6666666666647 351.99999999999994 Z" fill-opacity="1"/><path fill="none" stroke="rgb(0,0,0)" paint-order="fill stroke markers" d=" M 863.6666666666647 351.99999999999994 C 863.6666666666647 354.7614237491539 861.4280904158187 356.99999999999994 858.6666666666647 356.99999999999994 C 855.9052429175107 356.99999999999994 853.6666666666647 354.7614237491539 853.6666666666647 351.99999999999994 C 853.6666666666647 349.238576250846 855.9052429175107 346.99999999999994 858.6666666666647 346.99999999999994 C 861.4280904158187 346.99999999999994 863.6666666666647 349.238576250846 863.6666666666647 351.99999999999994 Z" stroke-opacity="1" stroke-linecap="round" stroke-linejoin="round" stroke-miterlimit="10"/><g transform="scale(28,28)"><g transform="translate(13.357142857142858,11.609571428571428)"><path fill="rgb(255,255,255)" stroke="none" paint-order="stroke fill markers" d=" M 0.47700000000000004 -0.23600000000000002 L 0.47700000000000004 -0.23600000000000002 L 0.47700000000000004 -0.17400000000000002 Q 0.542 -0.255 0.5750000000000001 -0.372 Q 0.585 -0.392 0.59 -0.393 Q 0.602 -0.393 0.602 -0.383 Q 0.602 -0.366 0.579 -0.307 Q 0.545 -0.221 0.487 -0.148 Q 0.47700000000000004 -0.128 0.47700000000000004 -0.113 Q 0.47700000000000004 -0.011 0.508 -0.011 Q 0.539 -0.011 0.558 -0.046 Q 0.561 -0.052000000000000005 0.5640000000000001 -0.06 Q 0.5680000000000001 -0.07 0.577 -0.07 Q 0.589 -0.07 0.589 -0.06 Q 0.589 -0.041 0.5640000000000001 -0.015 Q 0.538 0.011 0.505 0.011 Q 0.442 0.011 0.418 -0.058 Q 0.41600000000000004 -0.065 0.41400000000000003 -0.073 Q 0.309 0.011 0.203 0.011 Q 0.109 0.011 0.065 -0.064 Q 0.041 -0.105 0.041 -0.158 Q 0.041 -0.26 0.11900000000000001 -0.34700000000000003 Q 0.196 -0.433 0.293 -0.441 Q 0.302 -0.442 0.31 -0.442 Q 0.394 -0.442 0.44 -0.376 Q 0.44 -0.375 0.441 -0.375 Q 0.47700000000000004 -0.322 0.47700000000000004 -0.23600000000000002 M 0.41000000000000003 -0.099 L 0.41000000000000003 -0.099 Q 0.40800000000000003 -0.116 0.40800000000000003 -0.211 Q 0.40800000000000003 -0.334 0.381 -0.379 Q 0.369 -0.399 0.352 -0.40900000000000003 L 0.35100000000000003 -0.41000000000000003 L 0.35100000000000003 -0.41000000000000003 L 0.35000000000000003 -0.41000000000000003 Q 0.332 -0.42 0.309 -0.42 Q 0.23800000000000002 -0.42 0.181 -0.34 L 0.17300000000000001 -0.328 Q 0.137 -0.27 0.12 -0.166 Q 0.115 -0.138 0.115 -0.12 Q 0.115 -0.036000000000000004 0.17400000000000002 -0.016 Q 0.188 -0.011 0.20500000000000002 -0.011 Q 0.309 -0.011 0.41000000000000003 -0.099 Z"/></g></g><g transform="scale(28,28)"><g transform="translate(36.07142857142857,11.116549142857142)"><path fill="rgb(255,255,255)" stroke="none" paint-order="stroke fill markers" d=" M 0.294 -0.64 L 0.294 -0.079 Q 0.294 -0.049 0.306 -0.041 Q 0.323 -0.031 0.387 -0.031 L 0.419 -0.031 L 0.419 0 Q 0.384 -0.003 0.257 -0.003 Q 0.13 -0.003 0.095 0 L 0.095 -0.031 L 0.127 -0.031 Q 0.20400000000000001 -0.031 0.215 -0.049 L 0.216 -0.05 Q 0.22 -0.058 0.22 -0.079 L 0.22 -0.597 Q 0.168 -0.5710000000000001 0.089 -0.5710000000000001 L 0.089 -0.602 Q 0.209 -0.602 0.271 -0.666 Q 0.29 -0.666 0.293 -0.659 L 0.293 -0.659 L 0.293 -0.658 Q 0.294 -0.655 0.294 -0.64 Z"/></g><g transform="translate(36.57142857142857,11.116549142857142)"><path fill="rgb(255,255,255)" stroke="none" paint-order="stroke fill markers" d=" M 0.163 -0.457 L 0.28700000000000003 -0.377 Q 0.386 -0.435 0.386 -0.517 Q 0.386 -0.583 0.326 -0.62 Q 0.291 -0.641 0.249 -0.641 Q 0.177 -0.641 0.136 -0.596 L 0.136 -0.596 L 0.135 -0.595 Q 0.113 -0.5690000000000001 0.113 -0.538 Q 0.113 -0.49 0.163 -0.457 M 0.309 -0.362 L 0.309 -0.362 Q 0.386 -0.314 0.403 -0.296 Q 0.406 -0.294 0.40800000000000003 -0.291 Q 0.457 -0.23700000000000002 0.457 -0.168 Q 0.457 -0.079 0.383 -0.023 Q 0.325 0.022 0.249 0.022 Q 0.154 0.022 0.092 -0.037 Q 0.042 -0.085 0.042 -0.151 Q 0.042 -0.263 0.186 -0.335 Q 0.124 -0.377 0.113 -0.389 Q 0.069 -0.438 0.069 -0.499 Q 0.069 -0.579 0.136 -0.629 Q 0.186 -0.666 0.25 -0.666 Q 0.337 -0.666 0.391 -0.611 Q 0.43 -0.5710000000000001 0.43 -0.517 Q 0.43 -0.424 0.309 -0.362 M 0.209 -0.32 L 0.209 -0.32 Q 0.097 -0.25 0.092 -0.151 Q 0.092 -0.078 0.155 -0.035 Q 0.197 -0.006 0.25 -0.006 Q 0.328 -0.006 0.375 -0.055 Q 0.40700000000000003 -0.089 0.40700000000000003 -0.132 Q 0.40700000000000003 -0.19 0.343 -0.23500000000000001 Q 0.341 -0.23600000000000002 0.332 -0.242 L 0.209 -0.32 Z"/></g><g transform="translate(37.07142857142857,11.116549142857142)"><path fill="rgb(255,255,255)" stroke="none" paint-order="stroke fill markers" d=" M 0.46 -0.32 Q 0.46 -0.17400000000000002 0.423 -0.094 Q 0.364 0.018000000000000002 0.249 0.022 Q 0.158 0.022 0.10300000000000001 -0.05 Q 0.092 -0.063 0.084 -0.079 Q 0.039 -0.162 0.039 -0.32 Q 0.039 -0.467 0.076 -0.547 Q 0.126 -0.659 0.23800000000000002 -0.666 L 0.25 -0.666 Q 0.339 -0.666 0.395 -0.595 L 0.395 -0.594 Q 0.40900000000000003 -0.5760000000000001 0.42 -0.554 Q 0.46 -0.46900000000000003 0.46 -0.32 M 0.249 0 L 0.249 0 Q 0.312 0 0.34600000000000003 -0.061 Q 0.36 -0.088 0.366 -0.125 Q 0.377 -0.189 0.377 -0.332 Q 0.377 -0.47100000000000003 0.367 -0.527 Q 0.34900000000000003 -0.622 0.275 -0.641 Q 0.262 -0.644 0.249 -0.644 Q 0.179 -0.644 0.147 -0.5740000000000001 Q 0.136 -0.55 0.13 -0.516 Q 0.122 -0.462 0.122 -0.332 Q 0.122 -0.181 0.133 -0.121 Q 0.151 -0.025 0.221 -0.004 Q 0.23500000000000001 0 0.249 0 Z"/></g><g transform="translate(37.57142857142857,10.703657142857143) scale(0.7,0.7)"><path fill="rgb(255,255,255)" stroke="none" paint-order="stroke fill markers" d=" M 0.443 -0.25 L 0.443 -0.25 Q 0.443 -0.161 0.376 -0.10300000000000001 Q 0.321 -0.056 0.249 -0.056 Q 0.161 -0.056 0.10300000000000001 -0.124 Q 0.056 -0.179 0.056 -0.25 Q 0.056 -0.339 0.123 -0.397 Q 0.178 -0.444 0.25 -0.444 Q 0.338 -0.444 0.396 -0.376 Q 0.443 -0.321 0.443 -0.25 M 0.25 -0.096 L 0.25 -0.096 Q 0.325 -0.096 0.371 -0.156 Q 0.403 -0.198 0.403 -0.25 Q 0.403 -0.326 0.343 -0.372 Q 0.302 -0.404 0.25 -0.404 Q 0.17300000000000001 -0.404 0.126 -0.342 Q 0.096 -0.301 0.096 -0.25 Q 0.096 -0.17500000000000002 0.155 -0.129 Q 0.197 -0.096 0.25 -0.096 Z"/></g><g transform="translate(38.161441222399006,11.116549142857142)"><path fill="rgb(255,255,255)" stroke="none" paint-order="stroke fill markers" d=" M 0.40900000000000003 -0.23 L 0.40900000000000003 0.05 Q 0.40900000000000003 0.082 0.389 0.083 Q 0.369 0.083 0.369 0.05 L 0.369 -0.23 L 0.089 -0.23 Q 0.057 -0.23 0.056 -0.25 Q 0.056 -0.27 0.089 -0.27 L 0.369 -0.27 L 0.369 -0.55 Q 0.369 -0.582 0.389 -0.583 Q 0.40900000000000003 -0.583 0.40900000000000003 -0.55 L 0.40900000000000003 -0.27 L 0.6880000000000001 -0.27 Q 0.72 -0.27 0.721 -0.25 Q 0.721 -0.23 0.6880000000000001 -0.23 L 0.40900000000000003 -0.23 Z"/></g><g transform="translate(39.161663444621226,11.116549142857142)"><path fill="rgb(255,255,255)" stroke="none" paint-order="stroke fill markers" d=" M 0.47700000000000004 -0.23600000000000002 L 0.47700000000000004 -0.23600000000000002 L 0.47700000000000004 -0.17400000000000002 Q 0.542 -0.255 0.5750000000000001 -0.372 Q 0.585 -0.392 0.59 -0.393 Q 0.602 -0.393 0.602 -0.383 Q 0.602 -0.366 0.579 -0.307 Q 0.545 -0.221 0.487 -0.148 Q 0.47700000000000004 -0.128 0.47700000000000004 -0.113 Q 0.47700000000000004 -0.011 0.508 -0.011 Q 0.539 -0.011 0.558 -0.046 Q 0.561 -0.052000000000000005 0.5640000000000001 -0.06 Q 0.5680000000000001 -0.07 0.577 -0.07 Q 0.589 -0.07 0.589 -0.06 Q 0.589 -0.041 0.5640000000000001 -0.015 Q 0.538 0.011 0.505 0.011 Q 0.442 0.011 0.418 -0.058 Q 0.41600000000000004 -0.065 0.41400000000000003 -0.073 Q 0.309 0.011 0.203 0.011 Q 0.109 0.011 0.065 -0.064 Q 0.041 -0.105 0.041 -0.158 Q 0.041 -0.26 0.11900000000000001 -0.34700000000000003 Q 0.196 -0.433 0.293 -0.441 Q 0.302 -0.442 0.31 -0.442 Q 0.394 -0.442 0.44 -0.376 Q 0.44 -0.375 0.441 -0.375 Q 0.47700000000000004 -0.322 0.47700000000000004 -0.23600000000000002 M 0.41000000000000003 -0.099 L 0.41000000000000003 -0.099 Q 0.40800000000000003 -0.116 0.40800000000000003 -0.211 Q 0.40800000000000003 -0.334 0.381 -0.379 Q 0.369 -0.399 0.352 -0.40900000000000003 L 0.35100000000000003 -0.41000000000000003 L 0.35100000000000003 -0.41000000000000003 L 0.35000000000000003 -0.41000000000000003 Q 0.332 -0.42 0.309 -0.42 Q 0.23800000000000002 -0.42 0.181 -0.34 L 0.17300000000000001 -0.328 Q 0.137 -0.27 0.12 -0.166 Q 0.115 -0.138 0.115 -0.12 Q 0.115 -0.036000000000000004 0.17400000000000002 -0.016 Q 0.188 -0.011 0.20500000000000002 -0.011 Q 0.309 -0.011 0.41000000000000003 -0.099 Z"/></g></g></g></g></svg>