<svg version="1.1" xmlns="http://www.w3.org/2000/svg" xmlns:xlink="http://www.w3.org/1999/xlink" width="1288" height="704"><defs><clipPath id="bxWfTnuGeafk"><path fill="none" stroke="none" d=" M 0 0 L 1288 0 L 1288 704 L 0 704 L 0 0 Z"/></clipPath></defs><g transform="scale(1,1)" clip-path="url(#bxWfTnuGeafk)"><g><rect fill="rgb(0,0,0)" stroke="none" x="0" y="0" width="1288" height="704" fill-opacity="1"/><path fill="none" stroke="rgb(32,32,32)" paint-order="fill stroke markers" d=" M 0.5 0.5 L 0.5 704.5 M 0.5 0.5 L 0.5 704.5 M 214.5 0.5 L 214.5 704.5 M 429.5 0.5 L 429.5 704.5 M 643.5 0.5 L 643.5 704.5 M 858.5 0.5 L 858.5 704.5 M 1073.5 0.5 L 1073.5 704.5 M 1287.5 0.5 L 1287.5 704.5" stroke-opacity="1" stroke-linecap="round" stroke-linejoin="round" stroke-miterlimit="10"/><path fill="none" stroke="rgb(32,32,32)" paint-order="fill stroke markers" d="" stroke-opacity="0.23529411764705882" stroke-linecap="round" stroke-linejoin="round" stroke-miterlimit="10"/><path fill="none" stroke="rgb(32,32,32)" paint-order="fill stroke markers" d=" M 0.5 137.5 L 1288.5 137.5 M 0.5 137.5 L 1288.5 137.5 M 0.5 351.5 L 1288.5 351.5 M 0.5 566.5 L 1288.5 566.5" stroke-opacity="1" stroke-linecap="round" stroke-linejoin="round" stroke-miterlimit="10"/><path fill="none" stroke="rgb(32,32,32)" paint-order="fill stroke markers" d="" stroke-opacity="0.23529411764705882" stroke-linecap="round" stroke-linejoin="round" stroke-miterlimit="10"/><path fill="none" stroke="rgb(255,255,255)" paint-order="fill stroke markers" d=" M 536.6666666666655 351.99999999999994 C 536.6666666666655 470.55712629700975 440.55712629700946 566.6666666666658 321.99999999999966 566.6666666666658 C 203.4428737029898 566.6666666666658 107.33333333333383 470.55712629700975 107.33333333333383 351.99999999999994 C 107.33333333333383 233.44287370299008 203.4428737029898 137.3333333333341 321.99999999999966 137.3333333333341 C 440.55712629700946 137.3333333333341 536.6666666666655 233.44287370299008 536.6666666666655 351.99999999999994 Z" stroke-opacity="0.6980392156862745" stroke-linecap="round" stroke-linejoin="round" stroke-miterlimit="10" stroke-width="2.5"/><path fill="none" stroke="rgb(255,255,255)" paint-order="fill stroke markers" d=" M 1180.6666666666629 351.99999999999994 C 1180.6666666666629 470.55712629700975 1084.557126297007 566.6666666666658 965.9999999999972 566.6666666666658 C 847.4428737029873 566.6666666666658 751.3333333333313 470.55712629700975 751.3333333333313 351.99999999999994 C 751.3333333333313 233.44287370299008 847.4428737029873 137.3333333333341 965.9999999999972 137.3333333333341 C 1084.557126297007 137.3333333333341 1180.6666666666629 233.44287370299008 1180.6666666666629 351.99999999999994 Z" stroke-opacity="0.6980392156862745" stroke-linecap="round" stroke-linejoin="round" stroke-miterlimit="10" stroke-width="2.5"/><path fill="rgb(255,0,0)" stroke="none" paint-order="stroke fill markers" d=" M 371.99999999999966 351.99999999999994 C 371.99999999999966 334.1367205045918 362.4700538379248 317.63036955848213 346.99999999999966 308.698729810778 L 321.99999999999966 351.99999999999994 Z" fill-opacity="0.2980392156862745"/><path fill="none" stroke="rgb(255,0,0)" paint-order="fill stroke markers" d=" M 371.99999999999966 351.99999999999994 C 371.99999999999966 334.1367205045918 362.4700538379248 317.63036955848213 346.99999999999966 308.698729810778 L 321.99999999999966 351.99999999999994 Z" stroke-opacity="1" stroke-linecap="round" stroke-linejoin="round" stroke-miterlimit="10" stroke-width="2.5"/><path fill="rgb(153,102,255)" stroke="none" paint-order="stroke fill markers" d=" M 990.9999999999972 395.3012701892219 C 1006.4700538379223 386.36963044151776 1015.9999999999972 369.8632794954081 1015.9999999999972 351.99999999999994 L 965.9999999999972 351.99999999999994 Z" fill-opacity="0.26666666666666666"/><path fill="none" stroke="rgb(153,102,255)" paint-order="fill stroke markers" d=" M 990.9999999999972 395.3012701892219 C 1006.4700538379223 386.36963044151776 1015.9999999999972 369.8632794954081 1015.9999999999972 351.99999999999994 L 965.9999999999972 351.99999999999994 Z" stroke-opacity="1" stroke-linecap="round" stroke-linejoin="round" stroke-miterlimit="10" stroke-width="2.5"/><path fill="none" stroke="rgb(255,255,255)" paint-order="fill stroke markers" d=" M -5 351.99999999999994 L 1293 351.99999999999994" stroke-opacity="1" stroke-linecap="round" stroke-linejoin="round" stroke-miterlimit="10"/><path fill="none" stroke="rgb(255,255,255)" paint-order="fill stroke markers" d=" M 321.99999999999966 709 L 321.99999999999966 -5" stroke-opacity="1" stroke-linecap="round" stroke-linejoin="round" stroke-miterlimit="10"/><path fill="none" stroke="rgb(255,255,255)" paint-order="fill stroke markers" d=" M 965.9999999999972 709 L 965.9999999999972 -5" stroke-opacity="1" stroke-linecap="round" stroke-linejoin="round" stroke-miterlimit="10"/><path fill="none" stroke="rgb(255,255,255)" paint-order="fill stroke markers" d=" M 321.99999999999966 351.99999999999994 L 429.3333333333326 166.09321332094117" stroke-opacity="0.6980392156862745" stroke-linecap="round" stroke-linejoin="round" stroke-miterlimit="10" stroke-width="2.5"/><path fill="none" stroke="rgb(255,255,255)" paint-order="fill stroke markers" d=" M 965.9999999999972 351.99999999999994 L 1073.33333333333 537.9067866790588" stroke-opacity="0.6980392156862745" stroke-linecap="round" stroke-linejoin="round" stroke-miterlimit="10" stroke-width="2.5"/><path fill="none" stroke="rgb(255,102,0)" paint-order="fill stroke markers" d=" M 321.99999999999966 351.99999999999994 L 429.3333333333326 351.99999999999994" stroke-opacity="0.6980392156862745" stroke-linecap="round" stroke-linejoin="round" stroke-miterlimit="10" stroke-width="2.5"/><path fill="none" stroke="rgb(0,153,255)" paint-order="fill stroke markers" d=" M 429.3333333333326 351.99999999999994 L 429.3333333333326 166.09321332094117" stroke-opacity="0.6980392156862745" stroke-linecap="round" stroke-linejoin="round" stroke-miterlimit="10" stroke-width="2.5"/><path fill="none" stroke="rgb(0,153,255)" paint-order="fill stroke markers" d=" M 1073.33333333333 537.9067866790588 L 1073.33333333333 351.99999999999994" stroke-opacity="0.6980392156862745" stroke-linecap="round" stroke-linejoin="round" stroke-miterlimit="10" stroke-width="2.5"/><path fill="none" stroke="rgb(255,102,0)" paint-order="fill stroke markers" d=" M 1073.33333333333 351.99999999999994 L 965.9999999999972 351.99999999999994" stroke-opacity="0.6980392156862745" stroke-linecap="round" stroke-linejoin="round" stroke-miterlimit="10" stroke-width="2.5"/><path fill="rgb(255,255,255)" stroke="none" paint-order="stroke fill markers" d=" M 326.99999999999966 351.99999999999994 C 326.99999999999966 354.7614237491539 324.7614237491536 356.99999999999994 321.99999999999966 356.99999999999994 C 319.2385762508457 356.99999999999994 316.99999999999966 354.7614237491539 316.99999999999966 351.99999999999994 C 316.99999999999966 349.238576250846 319.2385762508457 346.99999999999994 321.99999999999966 346.99999999999994 C 324.7614237491536 346.99999999999994 326.99999999999966 349.238576250846 326.99999999999966 351.99999999999994 Z" fill-opacity="1"/><path fill="none" stroke="rgb(0,0,0)" paint-order="fill stroke markers" d=" M 326.99999999999966 351.99999999999994 C 326.99999999999966 354.7614237491539 324.7614237491536 356.99999999999994 321.99999999999966 356.99999999999994 C 319.2385762508457 356.99999999999994 316.99999999999966 354.7614237491539 316.99999999999966 351.99999999999994 C 316.99999999999966 349.238576250846 319.2385762508457 346.99999999999994 321.99999999999966 346.99999999999994 C 324.7614237491536 346.99999999999994 326.99999999999966 349.238576250846 326.99999999999966 351.99999999999994 Z" stroke-opacity="1" stroke-linecap="round" stroke-linejoin="round" stroke-miterlimit="10"/><path fill="rgb(255,255,255)" stroke="none" paint-order="stroke fill markers" d=" M 970.9999999999972 351.99999999999994 C 970.9999999999972 354.7614237491539 968.7614237491512 356.99999999999994 965.9999999999972 356.99999999999994 C 963.2385762508432 356.99999999999994 960.9999999999972 354.7614237491539 960.9999999999972 351.99999999999994 C 960.9999999999972 349.238576250846 963.2385762508432 346.99999999999994 965.9999999999972 346.99999999999994 C 968.7614237491512 346.99999999999994 970.9999999999972 349.238576250846 970.9999999999972 351.99999999999994 Z" fill-opacity="1"/><path fill="none" stroke="rgb(0,0,0)" paint-order="fill stroke markers" d=" M 970.9999999999972 351.99999999999994 C 970.9999999999972 354.7614237491539 968.7614237491512 356.99999999999994 965.9999999999972 356.99999999999994 C 963.2385762508432 356.99999999999994 960.9999999999972 354.7614237491539 960.9999999999972 351.99999999999994 C 960.9999999999972 349.238576250846 963.2385762508432 346.99999999999994 965.9999999999972 346.99999999999994 C 968.7614237491512 346.99999999999994 970.9999999999972 349.238576250846 970.9999999999972 351.99999999999994 Z" stroke-opacity="1" stroke-linecap="round" stroke-linejoin="round" stroke-miterlimit="10"/><path fill="rgb(255,255,255)" stroke="none" paint-order="stroke fill markers" d=" M 434.3333333333326 166.09321332094117 C 434.3333333333326 168.85463707009515 432.0947570824865 171.09321332094117 429.3333333333326 171.09321332094117 C 426.5719095841786 171.09321332094117 424.3333333333326 168.85463707009515 424.3333333333326 166.09321332094117 C 424.3333333333326 163.3317895717872 426.5719095841786 161.09321332094117 429.3333333333326 161.09321332094117 C 432.0947570824865 161.09321332094117 434.3333333333326 163.3317895717872 434.3333333333326 166.09321332094117 Z" fill-opacity="1"/><path fill="none" stroke="rgb(0,0,0)" paint-order="fill stroke markers" d=" M 434.3333333333326 166.09321332094117 C 434.3333333333326 168.85463707009515 432.0947570824865 171.09321332094117 429.3333333333326 171.09321332094117 C 426.5719095841786 171.09321332094117 424.3333333333326 168.85463707009515 424.3333333333326 166.09321332094117 C 424.3333333333326 163.3317895717872 426.5719095841786 161.09321332094117 429.3333333333326 161.09321332094117 C 432.0947570824865 161.09321332094117 434.3333333333326 163.3317895717872 434.3333333333326 166.09321332094117 Z" stroke-opacity="1" stroke-linecap="round" stroke-linejoin="round" stroke-miterlimit="10"/><path fill="rgb(255,255,255)" stroke="none" paint-order="stroke fill markers" d=" M 1078.33333333333 537.9067866790588 C 1078.33333333333 540.6682104282128 1076.094757082484 542.9067866790588 1073.33333333333 542.9067866790588 C 1070.5719095841762 542.9067866790588 1068.33333333333 540.6682104282128 1068.33333333333 537.9067866790588 C 1068.33333333333 535.1453629299048 1070.5719095841762 532.9067866790588 1073.33333333333 532.9067866790588 C 1076.094757082484 532.9067866790588 1078.33333333333 535.1453629299048 1078.33333333333 537.9067866790588 Z" fill-opacity="1"/><path fill="none" stroke="rgb(0,0,0)" paint-order="fill stroke markers" d=" M 1078.33333333333 537.9067866790588 C 1078.33333333333 540.6682104282128 1076.094757082484 542.9067866790588 1073.33333333333 542.9067866790588 C 1070.5719095841762 542.9067866790588 1068.33333333333 540.6682104282128 1068.33333333333 537.9067866790588 C 1068.33333333333 535.1453629299048 1070.5719095841762 532.9067866790588 1073.33333333333 532.9067866790588 C 1076.094757082484 532.9067866790588 1078.33333333333 535.1453629299048 1078.33333333333 537.9067866790588 Z" stroke-opacity="1" stroke-linecap="round" stroke-linejoin="round" stroke-miterlimit="10"/><path fill="rgb(255,255,255)" stroke="none" paint-order="stroke fill markers" d=" M 434.3333333333326 351.99999999999994 C 434.3333333333326 354.7614237491539 432.0947570824865 356.99999999999994 429.3333333333326 356.99999999999994 C 426.5719095841786 356.99999999999994 424.3333333333326 354.7614237491539 424.3333333333326 351.99999999999994 C 424.3333333333326 349.238576250846 426.5719095841786 346.99999999999994 429.3333333333326 346.99999999999994 C 432.0947570824865 346.99999999999994 434.3333333333326 349.238576250846 434.3333333333326 351.99999999999994 Z" fill-opacity="1"/><path fill="none" stroke="rgb(0,0,0)" paint-order="fill stroke markers" d=" M 434.3333333333326 351.99999999999994 C 434.3333333333326 354.7614237491539 432.0947570824865 356.99999999999994 429.3333333333326 356.99999999999994 C 426.5719095841786 356.99999999999994 424.3333333333326 354.7614237491539 424.3333333333326 351.99999999999994 C 424.3333333333326 349.238576250846 426.5719095841786 346.99999999999994 429.3333333333326 346.99999999999994 C 432.0947570824865 346.99999999999994 434.3333333333326 349.238576250846 434.3333333333326 351.99999999999994 Z" stroke-opacity="1" stroke-linecap="round" stroke-linejoin="round" stroke-miterlimit="10"/><path fill="rgb(255,255,255)" stroke="none" paint-order="stroke fill markers" d=" M 1078.33333333333 351.99999999999994 C 1078.33333333333 354.7614237491539 1076.094757082484 356.99999999999994 1073.33333333333 356.99999999999994 C 1070.5719095841762 356.99999999999994 1068.33333333333 354.7614237491539 1068.33333333333 351.99999999999994 C 1068.33333333333 349.238576250846 1070.5719095841762 346.99999999999994 1073.33333333333 346.99999999999994 C 1076.094757082484 346.99999999999994 1078.33333333333 349.238576250846 1078.33333333333 351.99999999999994 Z" fill-opacity="1"/><path fill="none" stroke="rgb(0,0,0)" paint-order="fill stroke markers" d=" M 1078.33333333333 351.99999999999994 C 1078.33333333333 354.7614237491539 1076.094757082484 356.99999999999994 1073.33333333333 356.99999999999994 C 1070.5719095841762 356.99999999999994 1068.33333333333 354.7614237491539 1068.33333333333 351.99999999999994 C 1068.33333333333 349.238576250846 1070.5719095841762 346.99999999999994 1073.33333333333 346.99999999999994 C 1076.094757082484 346.99999999999994 1078.33333333333 349.238576250846 1078.33333333333 351.99999999999994 Z" stroke-opacity="1" stroke-linecap="round" stroke-linejoin="round" stroke-miterlimit="10"/><g transform="scale(28,28)"><g transform="translate(13.357142857142858,11.609571428571428)"><path fill="rgb(255,255,255)" stroke="none" paint-order="stroke fill markers" d=" M 0.47700000000000004 -0.23600000000000002 L 0.47700000000000004 -0.23600000000000002 L 0.47700000000000004 -0.17400000000000002 Q 0.542 -0.255 0.5750000000000001 -0.372 Q 0.585 -0.392 0.59 -0.393 Q 0.602 -0.393 0.602 -0.383 Q 0.602 -0.366 0.579 -0.307 Q 0.545 -0.221 0.487 -0.148 Q 0.47700000000000004 -0.128 0.47700000000000004 -0.113 Q 0.47700000000000004 -0.011 0.508 -0.011 Q 0.539 -0.011 0.558 -0.046 Q 0.561 -0.052000000000000005 0.5640000000000001 -0.06 Q 0.5680000000000001 -0.07 0.577 -0.07 Q 0.589 -0.07 0.589 -0.06 Q 0.589 -0.041 0.5640000000000001 -0.015 Q 0.538 0.011 0.505 0.011 Q 0.442 0.011 0.418 -0.058 Q 0.41600000000000004 -0.065 0.41400000000000003 -0.073 Q 0.309 0.011 0.203 0.011 Q 0.109 0.011 0.065 -0.064 Q 0.041 -0.105 0.041 -0.158 Q 0.041 -0.26 0.11900000000000001 -0.34700000000000003 Q 0.196 -0.433 0.293 -0.441 Q 0.302 -0.442 0.31 -0.442 Q 0.394 -0.442 0.44 -0.376 Q 0.44 -0.375 0.441 -0.375 Q 0.47700000000000004 -0.322 0.47700000000000004 -0.23600000000000002 M 0.41000000000000003 -0.099 L 0.41000000000000003 -0.099 Q 0.40800000000000003 -0.116 0.40800000000000003 -0.211 Q 0.40800000000000003 -0.334 0.381 -0.379 Q 0.369 -0.399 0.352 -0.40900000000000003 L 0.35100000000000003 -0.41000000000000003 L 0.35100000000000003 -0.41000000000000003 L 0.35000000000000003 -0.41000000000000003 Q 0.332 -0.42 0.309 -0.42 Q 0.23800000000000002 -0.42 0.181 -0.34 L 0.17300000000000001 -0.328 Q 0.137 -0.27 0.12 -0.166 Q 0.115 -0.138 0.115 -0.12 Q 0.115 -0.036000000000000004 0.17400000000000002 -0.016 Q 0.188 -0.011 0.20500000000000002 -0.011 Q 0.309 -0.011 0.41000000000000003 -0.099 Z"/></g></g><g transform="scale(28,28)"><g transform="translate(36.214285714285715,13.868714285714287)"><path fill="rgb(255,255,255)" stroke="none" paint-order="stroke fill markers" d=" M 0.661 -0.23 L 0.116 -0.23 Q 0.084 -0.23 0.083 -0.25 Q 0.083 -0.27 0.116 -0.27 L 0.661 -0.27 Q 0.6930000000000001 -0.27 0.6940000000000001 -0.25 Q 0.6940000000000001 -0.23 0.661 -0.23 Z"/></g><g transform="translate(36.992285714285714,13.868714285714287)"><path fill="rgb(255,255,255)" stroke="none" paint-order="stroke fill markers" d=" M 0.47700000000000004 -0.23600000000000002 L 0.47700000000000004 -0.23600000000000002 L 0.47700000000000004 -0.17400000000000002 Q 0.542 -0.255 0.5750000000000001 -0.372 Q 0.585 -0.392 0.59 -0.393 Q 0.602 -0.393 0.602 -0.383 Q 0.602 -0.366 0.579 -0.307 Q 0.545 -0.221 0.487 -0.148 Q 0.47700000000000004 -0.128 0.47700000000000004 -0.113 Q 0.47700000000000004 -0.011 0.508 -0.011 Q 0.539 -0.011 0.558 -0.046 Q 0.561 -0.052000000000000005 0.5640000000000001 -0.06 Q 0.5680000000000001 -0.07 0.577 -0.07 Q 0.589 -0.07 0.589 -0.06 Q 0.589 -0.041 0.5640000000000001 -0.015 Q 0.538 0.011 0.505 0.011 Q 0.442 0.011 0.418 -0.058 Q 0.41600000000000004 -0.065 0.41400000000000003 -0.073 Q 0.309 0.011 0.203 0.011 Q 0.109 0.011 0.065 -0.064 Q 0.041 -0.105 0.041 -0.158 Q 0.041 -0.26 0.11900000000000001 -0.34700000000000003 Q 0.196 -0.433 0.293 -0.441 Q 0.302 -0.442 0.31 -0.442 Q 0.394 -0.442 0.44 -0.376 Q 0.44 -0.375 0.441 -0.375 Q 0.47700000000000004 -0.322 0.47700000000000004 -0.23600000000000002 M 0.41000000000000003 -0.099 L 0.41000000000000003 -0.099 Q 0.40800000000000003 -0.116 0.40800000000000003 -0.211 Q 0.40800000000000003 -0.334 0.381 -0.379 Q 0.369 -0.399 0.352 -0.40900000000000003 L 0.35100000000000003 -0.41000000000000003 L 0.35100000000000003 -0.41000000000000003 L 0.35000000000000003 -0.41000000000000003 Q 0.332 -0.42 0.309 -0.42 Q 0.23800000000000002 -0.42 0.181 -0.34 L 0.17300000000000001 -0.328 Q 0.137 -0.27 0.12 -0.166 Q 0.115 -0.138 0.115 -0.12 Q 0.115 -0.036000000000000004 0.17400000000000002 -0.016 Q 0.188 -0.011 0.20500000000000002 -0.011 Q 0.309 -0.011 0.41000000000000003 -0.099 Z"/></g></g></g></g></svg>